<svg width="954" height="566" viewBox="0 0 954 566" fill="none" xmlns="http://www.w3.org/2000/svg">
<rect width="954" height="565" transform="translate(0 0.289062)" fill="#2B3140"/>
<rect x="48.2261" y="66.5151" width="273.548" height="208.548" rx="18.7739" stroke="white" stroke-opacity="0.2" stroke-width="2.45217"/>
<path d="M178.125 196.789L170.337 174.606H139.507L131.719 196.789H121.567L150.142 119.284H159.702L188.276 196.789H178.125ZM154.492 131.799L142.353 166.389H167.49L155.352 131.799H154.492ZM217.978 189.699C227.485 189.699 234.521 183.469 234.521 175.197V169.88L218.945 170.9C210.137 171.491 206.269 174.553 206.269 180.354C206.269 186.262 211.265 189.699 217.978 189.699ZM216.26 197.81C205.034 197.81 196.709 191.149 196.709 180.568C196.709 170.202 204.336 164.24 217.817 163.435L234.521 162.414V157.15C234.521 150.007 230.063 146.086 221.416 146.086C214.487 146.086 209.653 148.718 208.364 153.283H199.019C200.254 143.991 209.385 137.868 221.738 137.868C235.864 137.868 243.76 145.119 243.76 157.15V196.789H234.951V188.249H234.092C230.332 194.426 223.994 197.81 216.26 197.81Z" fill="white"/>
<path d="M93.5751 240.352H95.5978C95.7878 242.096 97.4417 243.247 99.7438 243.247C101.923 243.247 103.51 242.096 103.51 240.509C103.51 239.146 102.56 238.307 100.392 237.749L98.3245 237.212C95.3519 236.452 94.0332 235.145 94.0332 232.954C94.0332 230.272 96.38 228.395 99.7326 228.395C102.94 228.395 105.264 230.295 105.354 232.999H103.342C103.163 231.267 101.767 230.205 99.6656 230.205C97.5758 230.205 96.123 231.289 96.123 232.865C96.123 234.083 97.017 234.81 99.2074 235.379L100.895 235.826C104.236 236.665 105.588 237.95 105.588 240.263C105.588 243.213 103.264 245.057 99.5538 245.057C96.1342 245.057 93.765 243.202 93.5751 240.352ZM109.947 244.789H107.935V228.663H117.725V230.474H109.947V236.016H117.088V237.805H109.947V244.789ZM124.721 228.663H130.476C133.504 228.663 135.639 230.786 135.639 233.837C135.639 236.899 133.482 239.034 130.453 239.034H126.732V244.789H124.721V228.663ZM126.732 230.451V237.246H129.951C132.253 237.246 133.571 235.983 133.571 233.837C133.571 231.703 132.264 230.451 129.951 230.451H126.732ZM137.65 244.789V233.167H139.483V235.067H139.528C139.908 233.781 140.981 232.966 142.344 232.966C142.679 232.966 142.97 233.022 143.126 233.044V234.932C142.97 234.877 142.556 234.821 142.087 234.821C140.578 234.821 139.595 235.905 139.595 237.547V244.789H137.65ZM148.971 244.99C145.752 244.99 143.584 242.677 143.584 238.978C143.584 235.268 145.752 232.966 148.971 232.966C152.178 232.966 154.346 235.268 154.346 238.978C154.346 242.677 152.178 244.99 148.971 244.99ZM148.971 243.28C151.027 243.28 152.368 241.716 152.368 238.978C152.368 236.24 151.027 234.675 148.971 234.675C146.915 234.675 145.562 236.24 145.562 238.978C145.562 241.716 146.915 243.28 148.971 243.28ZM167.399 244.789H165.387V230.474H160.303V228.663H172.484V230.474H167.399V244.789ZM175.948 234.653C174.126 234.653 172.852 236.05 172.73 237.983H179.044C178.999 236.039 177.781 234.653 175.948 234.653ZM178.999 241.459H180.91C180.575 243.493 178.608 244.99 176.071 244.99C172.741 244.99 170.718 242.677 170.718 239.023C170.718 235.413 172.774 232.966 175.982 232.966C179.122 232.966 181.055 235.245 181.055 238.766V239.503H172.718V239.615C172.718 241.839 174.026 243.303 176.116 243.303C177.591 243.303 178.675 242.554 178.999 241.459ZM186.911 240.364H186.866L184.061 244.789H181.904L185.86 238.978L181.971 233.167H184.139L186.933 237.525H186.978L189.738 233.167H191.906L187.984 238.9L191.85 244.789H189.694L186.911 240.364ZM194.175 230.362H196.119V233.167H198.377V234.765H196.119V241.671C196.119 242.733 196.566 243.213 197.561 243.213C197.784 243.213 198.231 243.18 198.366 243.157V244.789C198.131 244.845 197.594 244.878 197.136 244.878C195.002 244.878 194.175 244.007 194.175 241.772V234.765H192.443V233.167H194.175V230.362ZM207.462 230.451V236.631H211.318C213.385 236.631 214.559 235.514 214.559 233.536C214.559 231.602 213.307 230.451 211.228 230.451H207.462ZM207.462 238.408V244.789H205.451V228.663H211.497C214.603 228.663 216.637 230.563 216.637 233.469C216.637 235.715 215.419 237.458 213.396 238.095L217.129 244.789H214.771L211.318 238.408H207.462ZM223.532 234.653C221.711 234.653 220.437 236.05 220.314 237.983H226.628C226.583 236.039 225.365 234.653 223.532 234.653ZM226.583 241.459H228.494C228.159 243.493 226.192 244.99 223.655 244.99C220.325 244.99 218.302 242.677 218.302 239.023C218.302 235.413 220.359 232.966 223.566 232.966C226.706 232.966 228.639 235.245 228.639 238.766V239.503H220.303V239.615C220.303 241.839 221.61 243.303 223.7 243.303C225.175 243.303 226.259 242.554 226.583 241.459ZM235.333 243.169C237.356 243.169 238.708 241.492 238.708 238.933C238.708 236.374 237.356 234.675 235.333 234.675C233.333 234.675 232.026 236.329 232.026 238.933C232.026 241.537 233.333 243.169 235.333 243.169ZM235.4 249.17C232.841 249.17 230.819 247.728 230.494 245.75H232.495C232.875 246.812 234.026 247.516 235.479 247.516C237.49 247.516 238.708 246.354 238.708 244.621V242.789H238.664C237.948 244.051 236.574 244.878 234.942 244.878C231.981 244.878 230.036 242.543 230.036 238.933C230.036 235.29 231.981 232.966 234.987 232.966C236.63 232.966 237.993 233.77 238.764 235.122H238.798V233.167H240.653V244.554C240.653 247.326 238.608 249.17 235.4 249.17ZM252.733 233.167V244.789H250.889V242.9H250.845C250.152 244.241 248.945 244.99 247.157 244.99C244.62 244.99 243.134 243.347 243.134 240.71V233.167H245.078V240.364C245.078 242.252 245.961 243.269 247.76 243.269C249.649 243.269 250.789 241.973 250.789 239.995V233.167H252.733ZM255.359 244.789V228.663H257.304V244.789H255.359ZM263.763 243.336C265.596 243.336 267.004 242.051 267.004 240.375V239.425L263.897 239.615C262.333 239.715 261.439 240.408 261.439 241.504C261.439 242.61 262.366 243.336 263.763 243.336ZM263.327 244.99C261.014 244.99 259.461 243.593 259.461 241.504C259.461 239.514 260.992 238.263 263.674 238.106L267.004 237.916V236.944C267.004 235.525 266.065 234.675 264.456 234.675C262.959 234.675 262.02 235.379 261.774 236.519H259.897C260.031 234.508 261.752 232.966 264.501 232.966C267.228 232.966 268.949 234.441 268.949 236.754V244.789H267.105V242.789H267.06C266.367 244.119 264.892 244.99 263.327 244.99ZM271.418 244.789V233.167H273.251V235.067H273.296C273.676 233.781 274.749 232.966 276.112 232.966C276.447 232.966 276.738 233.022 276.894 233.044V234.932C276.738 234.877 276.324 234.821 275.855 234.821C274.346 234.821 273.363 235.905 273.363 237.547V244.789H271.418Z" fill="white"/>
<rect x="48.2261" y="290.515" width="273.548" height="208.548" rx="18.7739" stroke="white" stroke-opacity="0.2" stroke-width="2.45217"/>
<path d="M180.596 420.789L172.808 398.606H141.977L134.189 420.789H124.038L152.612 343.284H162.173L190.747 420.789H180.596ZM157.231 355.047L144.824 390.389H169.961L157.554 355.047H157.231ZM216.582 413.807C225.391 413.807 232.158 407.63 232.158 399.573V395.008L217.227 395.921C209.707 396.404 205.41 399.734 205.41 404.998C205.41 410.315 209.868 413.807 216.582 413.807ZM214.487 421.756C203.369 421.756 195.903 415.042 195.903 404.998C195.903 395.438 203.262 389.422 216.152 388.67L232.158 387.757V383.084C232.158 376.263 227.646 372.181 219.912 372.181C212.715 372.181 208.203 375.564 207.021 381.043H197.998C198.643 371.375 206.914 363.963 220.127 363.963C233.232 363.963 241.504 371.053 241.504 382.171V420.789H232.642V411.175H232.427C229.097 417.566 222.007 421.756 214.487 421.756Z" fill="white"/>
<path d="M77.9297 464.352H79.9524C80.1424 466.096 81.7963 467.247 84.0984 467.247C86.2776 467.247 87.8645 466.096 87.8645 464.509C87.8645 463.146 86.9146 462.307 84.7466 461.749L82.6792 461.212C79.7065 460.452 78.3879 459.145 78.3879 456.954C78.3879 454.272 80.7347 452.395 84.0872 452.395C87.2946 452.395 89.619 454.295 89.7084 456.999H87.6969C87.5181 455.267 86.1211 454.205 84.0202 454.205C81.9304 454.205 80.4776 455.289 80.4776 456.865C80.4776 458.083 81.3717 458.81 83.562 459.379L85.2495 459.826C88.5909 460.665 89.9431 461.95 89.9431 464.263C89.9431 467.213 87.6186 469.057 83.9084 469.057C80.4888 469.057 78.1197 467.202 77.9297 464.352ZM94.3014 468.789H92.2899V452.663H102.079V454.474H94.3014V460.016H101.442V461.805H94.3014V468.789ZM109.075 452.663H114.83C117.859 452.663 119.993 454.786 119.993 457.837C119.993 460.899 117.837 463.034 114.808 463.034H111.087V468.789H109.075V452.663ZM111.087 454.451V461.246H114.305C116.607 461.246 117.926 459.983 117.926 457.837C117.926 455.703 116.618 454.451 114.305 454.451H111.087ZM122.005 468.789V457.167H123.838V459.067H123.882C124.262 457.781 125.335 456.966 126.699 456.966C127.034 456.966 127.324 457.022 127.481 457.044V458.932C127.324 458.877 126.911 458.821 126.442 458.821C124.933 458.821 123.949 459.905 123.949 461.547V468.789H122.005ZM133.325 468.99C130.107 468.99 127.939 466.677 127.939 462.978C127.939 459.268 130.107 456.966 133.325 456.966C136.533 456.966 138.701 459.268 138.701 462.978C138.701 466.677 136.533 468.99 133.325 468.99ZM133.325 467.28C135.382 467.28 136.723 465.716 136.723 462.978C136.723 460.24 135.382 458.675 133.325 458.675C131.269 458.675 129.917 460.24 129.917 462.978C129.917 465.716 131.269 467.28 133.325 467.28ZM145.663 452.663H151.083C155.866 452.663 158.693 455.647 158.693 460.721C158.693 465.805 155.877 468.789 151.083 468.789H145.663V452.663ZM147.675 454.474V466.979H150.949C154.603 466.979 156.637 464.744 156.637 460.743C156.637 456.709 154.614 454.474 150.949 454.474H147.675ZM160.995 468.789V457.167H162.94V468.789H160.995ZM161.968 455.211C161.308 455.211 160.761 454.664 160.761 454.004C160.761 453.334 161.308 452.797 161.968 452.797C162.638 452.797 163.186 453.334 163.186 454.004C163.186 454.664 162.638 455.211 161.968 455.211ZM165.365 460.374C165.365 458.385 167.142 456.966 169.701 456.966C172.104 456.966 173.869 458.396 173.959 460.363H172.104C171.97 459.245 171.064 458.553 169.634 458.553C168.215 458.553 167.276 459.257 167.276 460.274C167.276 461.078 167.891 461.615 169.209 461.95L171.009 462.386C173.355 462.978 174.205 463.827 174.205 465.537C174.205 467.56 172.294 468.99 169.578 468.99C167.03 468.99 165.253 467.604 165.052 465.548H166.997C167.209 466.755 168.125 467.403 169.701 467.403C171.277 467.403 172.249 466.733 172.249 465.682C172.249 464.855 171.768 464.408 170.461 464.062L168.416 463.537C166.371 463.011 165.365 461.961 165.365 460.374ZM181.871 456.966C184.832 456.966 186.844 459.335 186.844 462.978C186.844 466.621 184.844 468.99 181.916 468.99C180.25 468.99 178.909 468.174 178.217 466.9H178.172V472.667H176.227V457.167H178.071V459.134H178.116C178.831 457.826 180.183 456.966 181.871 456.966ZM181.491 467.28C183.558 467.28 184.855 465.615 184.855 462.978C184.855 460.352 183.558 458.675 181.491 458.675C179.502 458.675 178.161 460.396 178.161 462.978C178.161 465.571 179.502 467.28 181.491 467.28ZM188.911 468.789V452.663H190.856V468.789H188.911ZM197.315 467.336C199.148 467.336 200.556 466.051 200.556 464.375V463.425L197.449 463.615C195.885 463.715 194.991 464.408 194.991 465.504C194.991 466.61 195.918 467.336 197.315 467.336ZM196.879 468.99C194.566 468.99 193.013 467.593 193.013 465.504C193.013 463.514 194.544 462.263 197.226 462.106L200.556 461.916V460.944C200.556 459.525 199.617 458.675 198.008 458.675C196.51 458.675 195.572 459.379 195.326 460.519H193.448C193.583 458.508 195.304 456.966 198.053 456.966C200.779 456.966 202.5 458.441 202.5 460.754V468.789H200.657V466.789H200.612C199.919 468.119 198.444 468.99 196.879 468.99ZM205.931 473.136C205.697 473.136 205.305 473.114 205.093 473.069V471.438C205.305 471.482 205.607 471.493 205.853 471.493C206.937 471.493 207.54 470.968 207.987 469.616L208.256 468.8L203.964 457.167H206.043L209.261 466.845H209.295L212.513 457.167H214.559L209.988 469.605C208.993 472.32 208.032 473.136 205.931 473.136ZM223.108 454.451V460.631H226.963C229.031 460.631 230.204 459.514 230.204 457.536C230.204 455.602 228.952 454.451 226.874 454.451H223.108ZM223.108 462.408V468.789H221.096V452.663H227.142C230.249 452.663 232.283 454.563 232.283 457.469C232.283 459.715 231.064 461.458 229.042 462.095L232.774 468.789H230.416L226.963 462.408H223.108ZM239.178 458.653C237.356 458.653 236.082 460.05 235.959 461.983H242.273C242.229 460.039 241.01 458.653 239.178 458.653ZM242.229 465.459H244.139C243.804 467.493 241.837 468.99 239.301 468.99C235.97 468.99 233.948 466.677 233.948 463.023C233.948 459.413 236.004 456.966 239.211 456.966C242.351 456.966 244.285 459.245 244.285 462.766V463.503H235.948V463.615C235.948 465.839 237.256 467.303 239.345 467.303C240.82 467.303 241.904 466.554 242.229 465.459ZM250.979 467.169C253.001 467.169 254.354 465.492 254.354 462.933C254.354 460.374 253.001 458.675 250.979 458.675C248.978 458.675 247.671 460.329 247.671 462.933C247.671 465.537 248.978 467.169 250.979 467.169ZM251.046 473.17C248.487 473.17 246.464 471.728 246.14 469.75H248.14C248.52 470.812 249.671 471.516 251.124 471.516C253.136 471.516 254.354 470.354 254.354 468.621V466.789H254.309C253.594 468.051 252.219 468.878 250.588 468.878C247.626 468.878 245.682 466.543 245.682 462.933C245.682 459.29 247.626 456.966 250.632 456.966C252.275 456.966 253.638 457.77 254.41 459.122H254.443V457.167H256.298V468.554C256.298 471.326 254.253 473.17 251.046 473.17ZM268.379 457.167V468.789H266.535V466.9H266.49C265.797 468.241 264.59 468.99 262.802 468.99C260.265 468.99 258.779 467.347 258.779 464.71V457.167H260.724V464.364C260.724 466.252 261.606 467.269 263.406 467.269C265.294 467.269 266.434 465.973 266.434 463.995V457.167H268.379ZM271.005 468.789V452.663H272.949V468.789H271.005ZM279.409 467.336C281.241 467.336 282.649 466.051 282.649 464.375V463.425L279.543 463.615C277.978 463.715 277.084 464.408 277.084 465.504C277.084 466.61 278.012 467.336 279.409 467.336ZM278.973 468.99C276.66 468.99 275.106 467.593 275.106 465.504C275.106 463.514 276.637 462.263 279.319 462.106L282.649 461.916V460.944C282.649 459.525 281.711 458.675 280.102 458.675C278.604 458.675 277.665 459.379 277.419 460.519H275.542C275.676 458.508 277.397 456.966 280.146 456.966C282.873 456.966 284.594 458.441 284.594 460.754V468.789H282.75V466.789H282.705C282.012 468.119 280.537 468.99 278.973 468.99ZM287.064 468.789V457.167H288.896V459.067H288.941C289.321 457.781 290.394 456.966 291.757 456.966C292.093 456.966 292.383 457.022 292.54 457.044V458.932C292.383 458.877 291.97 458.821 291.5 458.821C289.992 458.821 289.008 459.905 289.008 461.547V468.789H287.064Z" fill="white"/>
<rect x="365" y="65.2891" width="268" height="211" rx="20" fill="#1E8B77"/>
<path d="M382.354 256.289V247.409H385.27C387.226 247.409 388.738 248.093 388.738 250.205C388.738 252.233 387.226 253.133 385.318 253.133H384.13V256.289H382.354ZM384.13 251.729H385.198C386.422 251.729 387.01 251.213 387.01 250.205C387.01 249.161 386.362 248.825 385.138 248.825H384.13V251.729ZM390.214 256.289V249.581H391.642L391.786 250.769H391.822C392.302 249.881 393.034 249.413 393.73 249.413C394.09 249.413 394.306 249.461 394.51 249.557L394.21 251.069C393.97 251.009 393.79 250.961 393.502 250.961C392.986 250.961 392.35 251.321 391.978 252.293V256.289H390.214ZM395.452 256.289V249.581H397.216V256.289H395.452ZM396.328 248.489C395.716 248.489 395.308 248.105 395.308 247.517C395.308 246.941 395.716 246.569 396.328 246.569C396.94 246.569 397.36 246.941 397.36 247.517C397.36 248.105 396.94 248.489 396.328 248.489ZM399.096 256.289V249.581H400.524L400.668 250.469H400.704C401.268 249.893 401.892 249.413 402.756 249.413C403.728 249.413 404.292 249.833 404.604 250.577C405.228 249.941 405.876 249.413 406.752 249.413C408.18 249.413 408.828 250.421 408.828 252.101V256.289H407.064V252.329C407.064 251.273 406.776 250.925 406.128 250.925C405.744 250.925 405.324 251.165 404.844 251.669V256.289H403.08V252.329C403.08 251.273 402.78 250.925 402.132 250.925C401.76 250.925 401.316 251.165 400.86 251.669V256.289H399.096ZM412.307 256.457C411.107 256.457 410.327 255.617 410.327 254.465C410.327 253.037 411.491 252.281 414.191 251.981C414.155 251.321 413.879 250.829 413.051 250.829C412.427 250.829 411.815 251.093 411.203 251.465L410.567 250.289C411.359 249.809 412.307 249.413 413.375 249.413C415.079 249.413 415.955 250.421 415.955 252.377V256.289H414.515L414.383 255.581H414.335C413.747 256.085 413.075 256.457 412.307 256.457ZM412.883 255.077C413.387 255.077 413.759 254.849 414.191 254.429V253.073C412.547 253.277 412.007 253.721 412.007 254.333C412.007 254.849 412.367 255.077 412.883 255.077ZM417.753 256.289V249.581H419.181L419.325 250.769H419.361C419.841 249.881 420.573 249.413 421.269 249.413C421.629 249.413 421.845 249.461 422.049 249.557L421.749 251.069C421.509 251.009 421.329 250.961 421.041 250.961C420.525 250.961 419.889 251.321 419.517 252.293V256.289H417.753ZM423.672 258.989C423.288 258.989 423.012 258.941 422.76 258.857L423.084 257.501C423.204 257.537 423.384 257.597 423.552 257.597C424.224 257.597 424.608 257.165 424.812 256.565L424.92 256.169L422.304 249.581H424.092L425.148 252.689C425.352 253.301 425.52 253.949 425.724 254.597H425.784C425.928 253.961 426.096 253.325 426.252 252.689L427.188 249.581H428.88L426.492 256.505C425.904 258.077 425.184 258.989 423.672 258.989Z" fill="black"/>
<path d="M382.354 96.2891V87.4091H385.27C387.226 87.4091 388.738 88.0931 388.738 90.2051C388.738 92.2331 387.226 93.1331 385.318 93.1331H384.13V96.2891H382.354ZM384.13 91.7291H385.198C386.422 91.7291 387.01 91.2131 387.01 90.2051C387.01 89.1611 386.362 88.8251 385.138 88.8251H384.13V91.7291ZM391.87 96.4571C390.634 96.4571 390.214 95.6531 390.214 94.4051V86.7251H391.978V94.4771C391.978 94.8971 392.158 95.0291 392.326 95.0291C392.386 95.0291 392.434 95.0291 392.554 95.0051L392.77 96.3131C392.566 96.3851 392.29 96.4571 391.87 96.4571ZM395.643 96.4571C394.443 96.4571 393.663 95.6171 393.663 94.4651C393.663 93.0371 394.827 92.2811 397.527 91.9811C397.491 91.3211 397.215 90.8291 396.387 90.8291C395.763 90.8291 395.151 91.0931 394.539 91.4651L393.903 90.2891C394.695 89.8091 395.643 89.4131 396.711 89.4131C398.415 89.4131 399.291 90.4211 399.291 92.3771V96.2891H397.851L397.719 95.5811H397.671C397.083 96.0851 396.411 96.4571 395.643 96.4571ZM396.219 95.0771C396.723 95.0771 397.095 94.8491 397.527 94.4291V93.0731C395.883 93.2771 395.343 93.7211 395.343 94.3331C395.343 94.8491 395.703 95.0771 396.219 95.0771ZM401.089 96.2891V89.5811H402.517L402.661 90.4691H402.697C403.273 89.8931 403.969 89.4131 404.881 89.4131C406.321 89.4131 406.957 90.4211 406.957 92.1011V96.2891H405.193V92.3291C405.193 91.2731 404.893 90.9251 404.245 90.9251C403.693 90.9251 403.345 91.1891 402.853 91.6691V96.2891H401.089ZM411.224 96.4571C409.628 96.4571 409.016 95.4491 409.016 93.9491V90.9611H408.08V89.6531L409.124 89.5811L409.316 87.7571H410.78V89.5811H412.448V90.9611H410.78V93.9491C410.78 94.7171 411.104 95.0771 411.692 95.0771C411.92 95.0771 412.172 94.9931 412.364 94.9211L412.652 96.2051C412.292 96.3251 411.824 96.4571 411.224 96.4571Z" fill="black"/>
<path d="M565.952 256.289L566.252 253.685H565.232V252.545H566.396L566.6 250.901H565.508V249.761H566.744L567.032 247.445H568.064L567.776 249.761H569.3L569.588 247.445H570.632L570.344 249.761H571.424V250.901H570.212L569.996 252.545H571.16V253.685H569.864L569.552 256.289H568.508L568.808 253.685H567.308L566.984 256.289H565.952ZM567.428 252.545H568.952L569.156 250.901H567.632L567.428 252.545ZM572.814 256.289V254.861H574.734V249.485H573.114V248.393C574.014 248.213 574.614 247.985 575.19 247.637H576.498V254.861H578.166V256.289H572.814ZM580.012 256.289V247.409H585.46V248.885H581.788V250.937H584.896V252.437H581.788V254.801H585.592V256.289H580.012ZM589.831 256.457C588.127 256.457 586.867 255.485 586.867 254.093C586.867 253.013 587.575 252.329 588.379 251.897V251.849C587.719 251.357 587.203 250.721 587.203 249.821C587.203 248.381 588.343 247.481 589.891 247.481C591.463 247.481 592.471 248.417 592.471 249.833C592.471 250.673 591.895 251.369 591.331 251.765V251.825C592.135 252.281 592.819 252.929 592.819 254.093C592.819 255.437 591.619 256.457 589.831 256.457ZM590.395 251.345C590.803 250.901 591.031 250.445 591.031 249.941C591.031 249.221 590.587 248.717 589.855 248.717C589.243 248.717 588.763 249.101 588.763 249.821C588.763 250.613 589.471 250.973 590.395 251.345ZM589.867 255.209C590.635 255.209 591.175 254.789 591.175 254.021C591.175 253.157 590.335 252.857 589.207 252.377C588.727 252.749 588.379 253.277 588.379 253.889C588.379 254.693 589.039 255.209 589.867 255.209ZM594.473 256.289V247.409H597.401C599.225 247.409 600.617 247.949 600.617 249.605C600.617 250.421 600.173 251.249 599.417 251.525V251.573C600.365 251.801 601.073 252.485 601.073 253.673C601.073 255.461 599.585 256.289 597.641 256.289H594.473ZM596.249 251.021H597.281C598.409 251.021 598.889 250.577 598.889 249.857C598.889 249.077 598.373 248.777 597.305 248.777H596.249V251.021ZM596.249 254.921H597.485C598.685 254.921 599.345 254.489 599.345 253.577C599.345 252.713 598.709 252.341 597.485 252.341H596.249V254.921ZM603.769 256.289C603.937 253.313 604.489 251.417 606.145 249.125H602.149V247.637H608.041V248.729C606.025 251.189 605.713 252.917 605.557 256.289H603.769ZM610.847 256.289C611.015 253.313 611.567 251.417 613.223 249.125H609.227V247.637H615.119V248.729C613.103 251.189 612.791 252.917 612.635 256.289H610.847Z" fill="black"/>
<rect x="641" y="65.2891" width="263" height="211" rx="20" fill="#A7DB64"/>
<path d="M660.104 256.457C658.904 256.457 657.728 256.001 656.864 255.173L657.884 253.949C658.508 254.537 659.36 254.921 660.14 254.921C661.064 254.921 661.544 254.525 661.544 253.913C661.544 253.253 661.004 253.037 660.212 252.701L659.024 252.197C658.136 251.837 657.224 251.105 657.224 249.821C657.224 248.369 658.508 247.253 660.296 247.253C661.328 247.253 662.36 247.661 663.08 248.393L662.192 249.509C661.616 249.041 661.028 248.777 660.296 248.777C659.516 248.777 659.024 249.125 659.024 249.701C659.024 250.337 659.66 250.577 660.416 250.877L661.58 251.357C662.648 251.801 663.356 252.497 663.356 253.769C663.356 255.221 662.144 256.457 660.104 256.457ZM667.725 256.457C665.841 256.457 664.377 255.161 664.377 252.941C664.377 250.757 665.913 249.413 667.497 249.413C669.357 249.413 670.305 250.757 670.305 252.617C670.305 252.953 670.269 253.265 670.233 253.433H666.081C666.237 254.537 666.957 255.101 667.953 255.101C668.493 255.101 668.973 254.933 669.465 254.633L670.053 255.725C669.393 256.181 668.553 256.457 667.725 256.457ZM666.057 252.257H668.805C668.805 251.345 668.397 250.769 667.533 250.769C666.825 250.769 666.201 251.273 666.057 252.257ZM674.613 256.457C672.765 256.457 671.349 255.161 671.349 252.941C671.349 250.709 672.945 249.413 674.769 249.413C675.609 249.413 676.233 249.725 676.725 250.157L675.897 251.285C675.561 250.997 675.237 250.853 674.877 250.853C673.833 250.853 673.149 251.669 673.149 252.941C673.149 254.201 673.845 255.029 674.805 255.029C675.297 255.029 675.753 254.789 676.125 254.489L676.821 255.653C676.185 256.205 675.357 256.457 674.613 256.457ZM680.484 256.457C678.792 256.457 677.256 255.161 677.256 252.941C677.256 250.709 678.792 249.413 680.484 249.413C682.164 249.413 683.7 250.709 683.7 252.941C683.7 255.161 682.164 256.457 680.484 256.457ZM680.484 255.029C681.396 255.029 681.9 254.201 681.9 252.941C681.9 251.669 681.396 250.853 680.484 250.853C679.56 250.853 679.056 251.669 679.056 252.941C679.056 254.201 679.56 255.029 680.484 255.029ZM685.187 256.289V249.581H686.615L686.759 250.469H686.795C687.371 249.893 688.067 249.413 688.979 249.413C690.419 249.413 691.055 250.421 691.055 252.101V256.289H689.291V252.329C689.291 251.273 688.991 250.925 688.343 250.925C687.791 250.925 687.443 251.189 686.951 251.669V256.289H685.187ZM695.239 256.457C693.559 256.457 692.479 255.149 692.479 252.941C692.479 250.745 693.859 249.413 695.299 249.413C696.055 249.413 696.523 249.689 697.015 250.133L696.943 249.077V246.725H698.707V256.289H697.267L697.135 255.593H697.099C696.607 256.085 695.935 256.457 695.239 256.457ZM695.683 255.005C696.163 255.005 696.559 254.813 696.943 254.321V251.369C696.547 250.997 696.115 250.853 695.695 250.853C694.939 250.853 694.291 251.573 694.291 252.917C694.291 254.321 694.807 255.005 695.683 255.005ZM702.241 256.457C701.041 256.457 700.261 255.617 700.261 254.465C700.261 253.037 701.425 252.281 704.125 251.981C704.089 251.321 703.813 250.829 702.985 250.829C702.361 250.829 701.749 251.093 701.137 251.465L700.501 250.289C701.293 249.809 702.241 249.413 703.309 249.413C705.013 249.413 705.889 250.421 705.889 252.377V256.289H704.449L704.317 255.581H704.269C703.681 256.085 703.009 256.457 702.241 256.457ZM702.817 255.077C703.321 255.077 703.693 254.849 704.125 254.429V253.073C702.481 253.277 701.941 253.721 701.941 254.333C701.941 254.849 702.301 255.077 702.817 255.077ZM707.687 256.289V249.581H709.115L709.259 250.769H709.295C709.775 249.881 710.507 249.413 711.203 249.413C711.563 249.413 711.779 249.461 711.983 249.557L711.683 251.069C711.443 251.009 711.263 250.961 710.975 250.961C710.459 250.961 709.823 251.321 709.451 252.293V256.289H707.687ZM713.607 258.989C713.223 258.989 712.947 258.941 712.695 258.857L713.019 257.501C713.139 257.537 713.319 257.597 713.487 257.597C714.159 257.597 714.543 257.165 714.747 256.565L714.855 256.169L712.239 249.581H714.027L715.083 252.689C715.287 253.301 715.455 253.949 715.659 254.597H715.719C715.863 253.961 716.031 253.325 716.187 252.689L717.123 249.581H718.815L716.427 256.505C715.839 258.077 715.119 258.989 713.607 258.989Z" fill="black"/>
<path d="M657.452 96.2891V87.4091H660.368C662.324 87.4091 663.836 88.0931 663.836 90.2051C663.836 92.2331 662.324 93.1331 660.416 93.1331H659.228V96.2891H657.452ZM659.228 91.7291H660.296C661.52 91.7291 662.108 91.2131 662.108 90.2051C662.108 89.1611 661.46 88.8251 660.236 88.8251H659.228V91.7291ZM666.968 96.4571C665.732 96.4571 665.312 95.6531 665.312 94.4051V86.7251H667.076V94.4771C667.076 94.8971 667.256 95.0291 667.424 95.0291C667.484 95.0291 667.532 95.0291 667.652 95.0051L667.868 96.3131C667.664 96.3851 667.388 96.4571 666.968 96.4571ZM670.741 96.4571C669.541 96.4571 668.761 95.6171 668.761 94.4651C668.761 93.0371 669.925 92.2811 672.625 91.9811C672.589 91.3211 672.313 90.8291 671.485 90.8291C670.861 90.8291 670.249 91.0931 669.637 91.4651L669.001 90.2891C669.793 89.8091 670.741 89.4131 671.809 89.4131C673.513 89.4131 674.389 90.4211 674.389 92.3771V96.2891H672.949L672.817 95.5811H672.769C672.181 96.0851 671.509 96.4571 670.741 96.4571ZM671.317 95.0771C671.821 95.0771 672.193 94.8491 672.625 94.4291V93.0731C670.981 93.2771 670.441 93.7211 670.441 94.3331C670.441 94.8491 670.801 95.0771 671.317 95.0771ZM676.187 96.2891V89.5811H677.615L677.759 90.4691H677.795C678.371 89.8931 679.067 89.4131 679.979 89.4131C681.419 89.4131 682.055 90.4211 682.055 92.1011V96.2891H680.291V92.3291C680.291 91.2731 679.991 90.9251 679.343 90.9251C678.791 90.9251 678.443 91.1891 677.951 91.6691V96.2891H676.187ZM686.323 96.4571C684.727 96.4571 684.115 95.4491 684.115 93.9491V90.9611H683.179V89.6531L684.223 89.5811L684.415 87.7571H685.879V89.5811H687.547V90.9611H685.879V93.9491C685.879 94.7171 686.203 95.0771 686.791 95.0771C687.019 95.0771 687.271 94.9931 687.463 94.9211L687.751 96.2051C687.391 96.3251 686.923 96.4571 686.323 96.4571Z" fill="black"/>
<path d="M840.528 256.289L840.828 253.685H839.808V252.545H840.972L841.176 250.901H840.084V249.761H841.32L841.608 247.445H842.64L842.352 249.761H843.876L844.164 247.445H845.208L844.92 249.761H846V250.901H844.788L844.572 252.545H845.736V253.685H844.44L844.128 256.289H843.084L843.384 253.685H841.884L841.56 256.289H840.528ZM842.004 252.545H843.528L843.732 250.901H842.208L842.004 252.545ZM846.371 256.289L849.215 247.409H851.303L854.147 256.289H852.287L851.015 251.669C850.751 250.745 850.499 249.713 850.247 248.765H850.199C849.959 249.725 849.707 250.745 849.443 251.669L848.171 256.289H846.371ZM848.135 254.009V252.641H852.359V254.009H848.135ZM856.326 256.289C856.494 253.313 857.046 251.417 858.702 249.125H854.706V247.637H860.598V248.729C858.582 251.189 858.27 252.917 858.114 256.289H856.326ZM862.276 256.289V247.409H864.712C867.424 247.409 869.092 248.813 869.092 251.813C869.092 254.801 867.424 256.289 864.808 256.289H862.276ZM864.052 254.861H864.592C866.26 254.861 867.28 253.973 867.28 251.813C867.28 249.653 866.26 248.825 864.592 248.825H864.052V254.861ZM870.843 256.289V247.409H873.771C875.595 247.409 876.987 247.949 876.987 249.605C876.987 250.421 876.543 251.249 875.787 251.525V251.573C876.735 251.801 877.443 252.485 877.443 253.673C877.443 255.461 875.955 256.289 874.011 256.289H870.843ZM872.619 251.021H873.651C874.779 251.021 875.259 250.577 875.259 249.857C875.259 249.077 874.743 248.777 873.675 248.777H872.619V251.021ZM872.619 254.921H873.855C875.055 254.921 875.715 254.489 875.715 253.577C875.715 252.713 875.079 252.341 873.855 252.341H872.619V254.921ZM881.699 256.457C880.007 256.457 878.495 255.173 878.495 252.197C878.495 248.897 880.151 247.481 881.939 247.481C883.031 247.481 883.823 247.937 884.351 248.477L883.415 249.545C883.103 249.185 882.563 248.909 882.047 248.909C880.979 248.909 880.115 249.725 880.115 252.197C880.115 254.345 880.787 255.125 881.651 255.125C882.335 255.125 882.875 254.609 882.875 253.589C882.875 252.617 882.371 252.173 881.603 252.173C881.123 252.173 880.571 252.437 880.115 253.193L880.043 251.993C880.523 251.321 881.327 250.925 881.927 250.925C883.415 250.925 884.483 251.777 884.483 253.589C884.483 255.353 883.211 256.457 881.699 256.457ZM889.029 256.289V251.069C889.029 250.553 889.077 249.725 889.101 249.209H889.053C888.825 249.677 888.585 250.121 888.333 250.613L886.965 252.785H891.729V254.141H885.249V252.929L888.549 247.637H890.673V256.289H889.029Z" fill="black"/>
<rect x="365" y="289.289" width="129" height="211" rx="20" fill="#FF589B"/>
<rect x="502" y="289.289" width="129" height="211" rx="20" fill="#F9C901"/>
<rect x="639" y="289.289" width="128" height="211" rx="20" fill="#5FB6C2"/>
<rect x="775" y="289.289" width="129" height="211" rx="20" fill="#BE8157"/>
<path d="M382.092 317.289V308.409H387.564V309.885H383.868V312.213H387.024V313.689H383.868V317.289H382.092ZM390.624 317.457C389.388 317.457 388.968 316.653 388.968 315.405V307.725H390.732V315.477C390.732 315.897 390.912 316.029 391.08 316.029C391.14 316.029 391.188 316.029 391.308 316.005L391.524 317.313C391.32 317.385 391.044 317.457 390.624 317.457ZM395.561 317.457C393.869 317.457 392.333 316.161 392.333 313.941C392.333 311.709 393.869 310.413 395.561 310.413C397.241 310.413 398.777 311.709 398.777 313.941C398.777 316.161 397.241 317.457 395.561 317.457ZM395.561 316.029C396.473 316.029 396.977 315.201 396.977 313.941C396.977 312.669 396.473 311.853 395.561 311.853C394.637 311.853 394.133 312.669 394.133 313.941C394.133 315.201 394.637 316.029 395.561 316.029ZM401.204 317.289L399.476 310.581H401.228L401.972 313.893C402.092 314.553 402.176 315.189 402.296 315.849H402.356C402.476 315.189 402.596 314.541 402.764 313.893L403.58 310.581H405.14L405.98 313.893C406.136 314.553 406.268 315.189 406.412 315.849H406.472C406.592 315.189 406.676 314.553 406.808 313.893L407.528 310.581H409.172L407.504 317.289H405.428L404.72 314.361C404.576 313.737 404.468 313.125 404.336 312.405H404.276C404.156 313.125 404.048 313.737 403.904 314.373L403.22 317.289H401.204ZM413.224 317.457C411.34 317.457 409.876 316.161 409.876 313.941C409.876 311.757 411.412 310.413 412.996 310.413C414.856 310.413 415.804 311.757 415.804 313.617C415.804 313.953 415.768 314.265 415.732 314.433H411.58C411.736 315.537 412.456 316.101 413.452 316.101C413.992 316.101 414.472 315.933 414.964 315.633L415.552 316.725C414.892 317.181 414.052 317.457 413.224 317.457ZM411.556 313.257H414.304C414.304 312.345 413.896 311.769 413.032 311.769C412.324 311.769 411.7 312.273 411.556 313.257ZM417.268 317.289V310.581H418.696L418.84 311.769H418.876C419.356 310.881 420.088 310.413 420.784 310.413C421.144 310.413 421.36 310.461 421.564 310.557L421.264 312.069C421.024 312.009 420.844 311.961 420.556 311.961C420.04 311.961 419.404 312.321 419.032 313.293V317.289H417.268Z" fill="black"/>
<path d="M519.744 317.457C518.544 317.457 517.368 317.001 516.504 316.173L517.524 314.949C518.148 315.537 519 315.921 519.78 315.921C520.704 315.921 521.184 315.525 521.184 314.913C521.184 314.253 520.644 314.037 519.852 313.701L518.664 313.197C517.776 312.837 516.864 312.105 516.864 310.821C516.864 309.369 518.148 308.253 519.936 308.253C520.968 308.253 522 308.661 522.72 309.393L521.832 310.509C521.256 310.041 520.668 309.777 519.936 309.777C519.156 309.777 518.664 310.125 518.664 310.701C518.664 311.337 519.3 311.577 520.056 311.877L521.22 312.357C522.288 312.801 522.996 313.497 522.996 314.769C522.996 316.221 521.784 317.457 519.744 317.457ZM526.44 317.457C524.988 317.457 524.352 316.461 524.352 314.769V310.581H526.116V314.553C526.116 315.585 526.404 315.945 527.064 315.945C527.616 315.945 527.976 315.705 528.432 315.105V310.581H530.184V317.289H528.744L528.612 316.329H528.576C527.988 317.013 527.352 317.457 526.44 317.457ZM532.077 317.289V310.581H533.505L533.649 311.469H533.685C534.261 310.893 534.957 310.413 535.869 310.413C537.309 310.413 537.945 311.421 537.945 313.101V317.289H536.181V313.329C536.181 312.273 535.881 311.925 535.233 311.925C534.681 311.925 534.333 312.189 533.841 312.669V317.289H532.077Z" fill="black"/>
<path d="M657.932 317.289L656.216 308.409H658.028L658.724 312.741C658.868 313.677 659 314.625 659.144 315.585H659.192C659.372 314.625 659.564 313.677 659.756 312.741L660.776 308.409H662.3L663.332 312.741C663.524 313.665 663.692 314.625 663.896 315.585H663.956C664.076 314.625 664.22 313.677 664.34 312.741L665.06 308.409H666.74L665.096 317.289H662.876L661.892 312.897C661.736 312.213 661.616 311.517 661.508 310.845H661.46C661.34 311.517 661.208 312.213 661.076 312.897L660.104 317.289H657.932ZM669.326 317.457C668.126 317.457 667.346 316.617 667.346 315.465C667.346 314.037 668.51 313.281 671.21 312.981C671.174 312.321 670.898 311.829 670.07 311.829C669.446 311.829 668.834 312.093 668.222 312.465L667.586 311.289C668.378 310.809 669.326 310.413 670.394 310.413C672.098 310.413 672.974 311.421 672.974 313.377V317.289H671.534L671.402 316.581H671.354C670.766 317.085 670.094 317.457 669.326 317.457ZM669.902 316.077C670.406 316.077 670.778 315.849 671.21 315.429V314.073C669.566 314.277 669.026 314.721 669.026 315.333C669.026 315.849 669.386 316.077 669.902 316.077ZM676.927 317.457C675.331 317.457 674.719 316.449 674.719 314.949V311.961H673.783V310.653L674.827 310.581L675.019 308.757H676.483V310.581H678.151V311.961H676.483V314.949C676.483 315.717 676.807 316.077 677.395 316.077C677.623 316.077 677.875 315.993 678.067 315.921L678.355 317.205C677.995 317.325 677.527 317.457 676.927 317.457ZM682.165 317.457C680.281 317.457 678.817 316.161 678.817 313.941C678.817 311.757 680.353 310.413 681.937 310.413C683.797 310.413 684.745 311.757 684.745 313.617C684.745 313.953 684.709 314.265 684.673 314.433H680.521C680.677 315.537 681.397 316.101 682.393 316.101C682.933 316.101 683.413 315.933 683.905 315.633L684.493 316.725C683.833 317.181 682.993 317.457 682.165 317.457ZM680.497 313.257H683.245C683.245 312.345 682.837 311.769 681.973 311.769C681.265 311.769 680.641 312.273 680.497 313.257ZM686.21 317.289V310.581H687.638L687.782 311.769H687.818C688.298 310.881 689.03 310.413 689.726 310.413C690.086 310.413 690.302 310.461 690.506 310.557L690.206 312.069C689.966 312.009 689.786 311.961 689.498 311.961C688.982 311.961 688.346 312.321 687.974 313.293V317.289H686.21Z" fill="black"/>
<path d="M793.744 317.457C792.544 317.457 791.368 317.001 790.504 316.173L791.524 314.949C792.148 315.537 793 315.921 793.78 315.921C794.704 315.921 795.184 315.525 795.184 314.913C795.184 314.253 794.644 314.037 793.852 313.701L792.664 313.197C791.776 312.837 790.864 312.105 790.864 310.821C790.864 309.369 792.148 308.253 793.936 308.253C794.968 308.253 796 308.661 796.72 309.393L795.832 310.509C795.256 310.041 794.668 309.777 793.936 309.777C793.156 309.777 792.664 310.125 792.664 310.701C792.664 311.337 793.3 311.577 794.056 311.877L795.22 312.357C796.288 312.801 796.996 313.497 796.996 314.769C796.996 316.221 795.784 317.457 793.744 317.457ZM801.244 317.457C799.552 317.457 798.016 316.161 798.016 313.941C798.016 311.709 799.552 310.413 801.244 310.413C802.924 310.413 804.46 311.709 804.46 313.941C804.46 316.161 802.924 317.457 801.244 317.457ZM801.244 316.029C802.156 316.029 802.66 315.201 802.66 313.941C802.66 312.669 802.156 311.853 801.244 311.853C800.32 311.853 799.816 312.669 799.816 313.941C799.816 315.201 800.32 316.029 801.244 316.029ZM805.948 317.289V310.581H807.712V317.289H805.948ZM806.824 309.489C806.212 309.489 805.804 309.105 805.804 308.517C805.804 307.941 806.212 307.569 806.824 307.569C807.436 307.569 807.856 307.941 807.856 308.517C807.856 309.105 807.436 309.489 806.824 309.489ZM811.249 317.457C810.013 317.457 809.593 316.653 809.593 315.405V307.725H811.357V315.477C811.357 315.897 811.537 316.029 811.705 316.029C811.765 316.029 811.813 316.029 811.933 316.005L812.149 317.313C811.945 317.385 811.669 317.457 811.249 317.457Z" fill="black"/>
</svg>
