<svg width="101" height="100" viewBox="0 0 101 100" fill="none" xmlns="http://www.w3.org/2000/svg">
<path d="M21.6173 46.8886L16.0391 44.4341L40.2209 33.8633L48.9788 37.6844" stroke="#FF6A3C" stroke-width="3" stroke-linecap="round" stroke-linejoin="round"/>
<path d="M29.1191 50.1506L26.832 49.1465" stroke="#FF6A3C" stroke-width="3" stroke-linecap="round" stroke-linejoin="round"/>
<path d="M16.0391 44.4336V74.64L40.2209 85.2108L64.4028 74.64V52.1037" stroke="#FF6A3C" stroke-width="3" stroke-linecap="round" stroke-linejoin="round"/>
<path d="M40.2188 76.1465V85.2112" stroke="#FF6A3C" stroke-width="3" stroke-linecap="round" stroke-linejoin="round"/>
<path d="M40.2188 67.082V70.0943" stroke="#FF6A3C" stroke-width="3" stroke-linecap="round" stroke-linejoin="round"/>
<path d="M65.9068 42.9272L55.3359 45.9395L58.3482 35.3686L76.4218 17.295C78.5416 15.231 81.9165 15.2868 83.9804 17.4066C85.9886 19.4705 85.9886 22.7617 83.9804 24.8257L65.9068 42.9272Z" stroke="#FF6A3C" stroke-width="3" stroke-linecap="round" stroke-linejoin="round"/>
<path d="M74.1367 19.5547L81.6953 27.1133" stroke="#FF6A3C" stroke-width="3" stroke-linecap="round" stroke-linejoin="round"/>
<path d="M58.3516 35.3691L65.9101 42.9277" stroke="#FF6A3C" stroke-width="3" stroke-linecap="round" stroke-linejoin="round"/>
<path d="M34.168 55.0056C34.168 58.3525 36.8734 61.058 40.2204 61.058C43.5674 61.058 46.2728 58.3525 46.2728 55.0056C46.2728 51.6586 43.5674 48.9531 40.2204 48.9531C36.8734 48.9531 34.168 51.6586 34.168 55.0056Z" stroke="#FF6A3C" stroke-width="3" stroke-linecap="round" stroke-linejoin="round"/>
</svg>
