<svg width="101" height="100" viewBox="0 0 101 100" fill="none" xmlns="http://www.w3.org/2000/svg">
<path d="M45.1086 82.3989H21.1599C19.5997 82.3989 18.3516 81.1248 18.3516 79.5906V26.0505C18.3516 24.4903 19.6257 23.2422 21.1599 23.2422H26.8025" stroke="#FF6A3C" stroke-width="3" stroke-linecap="round" stroke-linejoin="round"/>
<path d="M60.6055 23.2422H66.2481C67.8083 23.2422 69.0564 24.5163 69.0564 26.0505V42.9524" stroke="#FF6A3C" stroke-width="3" stroke-linecap="round" stroke-linejoin="round"/>
<path d="M49.3472 23.2442C49.3472 20.1239 46.825 17.6016 43.7046 17.6016C40.5842 17.6016 38.062 20.1239 38.062 23.2442H32.4453V31.6952H54.9899V23.2442H49.3472Z" stroke="#FF6A3C" stroke-width="3" stroke-linecap="round" stroke-linejoin="round"/>
<path d="M63.4139 42.953V30.2635C63.4139 29.4834 62.7898 28.8594 62.0097 28.8594H54.9629" stroke="#FF6A3C" stroke-width="3" stroke-linecap="round" stroke-linejoin="round"/>
<path d="M32.4432 28.8594H25.3963C24.6163 28.8594 23.9922 29.4834 23.9922 30.2635V75.3267C23.9922 76.1068 24.6163 76.7308 25.3963 76.7308H45.1066" stroke="#FF6A3C" stroke-width="3" stroke-linecap="round" stroke-linejoin="round"/>
<path d="M32.4453 40.1191H54.9899" stroke="#FF6A3C" stroke-width="3" stroke-linecap="round" stroke-linejoin="round"/>
<path d="M32.4453 48.5703H49.3472" stroke="#FF6A3C" stroke-width="3" stroke-linecap="round" stroke-linejoin="round"/>
<path d="M32.4453 57.0195H43.7046" stroke="#FF6A3C" stroke-width="3" stroke-linecap="round" stroke-linejoin="round"/>
<path d="M49.3457 65.4722C49.3457 74.8073 56.9126 82.3742 66.2476 82.3742C75.5827 82.3742 83.1496 74.8073 83.1496 65.4722C83.1496 56.1372 75.5827 48.5703 66.2476 48.5703C56.9126 48.5703 49.3457 56.1372 49.3457 65.4722Z" stroke="#FF6A3C" stroke-width="3" stroke-linecap="round" stroke-linejoin="round"/>
<path d="M73.7626 60.584L65.5716 71.5052C64.8695 72.4413 63.5434 72.6234 62.6073 71.9213C62.5293 71.8693 62.4513 71.7913 62.3733 71.7133L58.1348 67.4748" stroke="#FF6A3C" stroke-width="3" stroke-linecap="round" stroke-linejoin="round"/>
</svg>
