<svg width="101" height="100" viewBox="0 0 101 100" fill="none" xmlns="http://www.w3.org/2000/svg">
<path d="M61.1149 67.2734V74.3947C61.1149 79.8189 56.6907 84.2431 51.2665 84.2431C45.8422 84.2431 41.418 79.8189 41.418 74.3947V67.2734" stroke="#FF6A3C" stroke-width="3" stroke-miterlimit="10" stroke-linecap="round"/>
<path d="M51.2656 84.2422V87.5149" stroke="#FF6A3C" stroke-width="3" stroke-miterlimit="10" stroke-linecap="round"/>
<path d="M54.5388 69.2435V49.789C54.5388 47.0617 56.7509 44.8496 59.4782 44.8496C62.2054 44.8496 64.3873 47.0617 64.3873 49.789C64.3873 52.5163 62.1751 54.7284 59.4782 54.7284H43.0539C40.3267 54.7284 38.1145 52.5163 38.1448 49.789C38.1751 47.0617 40.357 44.8496 43.0842 44.8799C45.8115 44.9102 47.9933 47.092 47.9933 49.8193V69.2739" stroke="#FF6A3C" stroke-width="3" stroke-miterlimit="10" stroke-linecap="round"/>
<path d="M41.5391 76.0625H60.9633" stroke="#FF6A3C" stroke-width="3" stroke-miterlimit="10" stroke-linecap="round"/>
<path d="M28.2656 46.5166C28.2656 59.2135 38.5687 69.4863 51.2353 69.4863C63.902 69.4863 74.205 59.1832 74.205 46.5166C74.205 33.8499 63.902 23.5469 51.2353 23.5469C38.5687 23.5469 28.2656 33.8196 28.2656 46.5166Z" stroke="#FF6A3C" stroke-width="3" stroke-miterlimit="10" stroke-linecap="round"/>
<path d="M51.2656 12.0312V15.304" stroke="#FF6A3C" stroke-width="3" stroke-miterlimit="10" stroke-linecap="round"/>
<path d="M26.9023 22.1523L29.1751 24.4554" stroke="#FF6A3C" stroke-width="3" stroke-miterlimit="10" stroke-linecap="round"/>
<path d="M16.7812 46.5156H20.054" stroke="#FF6A3C" stroke-width="3" stroke-miterlimit="10" stroke-linecap="round"/>
<path d="M26.9023 70.8802L29.2054 68.5469" stroke="#FF6A3C" stroke-width="3" stroke-miterlimit="10" stroke-linecap="round"/>
<path d="M75.5999 70.8802L73.2969 68.5469" stroke="#FF6A3C" stroke-width="3" stroke-miterlimit="10" stroke-linecap="round"/>
<path d="M85.7219 46.5156H82.4492" stroke="#FF6A3C" stroke-width="3" stroke-miterlimit="10" stroke-linecap="round"/>
<path d="M75.6009 22.1523L73.3281 24.4554" stroke="#FF6A3C" stroke-width="3" stroke-miterlimit="10" stroke-linecap="round"/>
</svg>
