<svg width="101" height="100" viewBox="0 0 101 100" fill="none" xmlns="http://www.w3.org/2000/svg">
<path d="M43.7002 27.8496V33.8953" stroke="#FF6A3C" stroke-width="3" stroke-linecap="round" stroke-linejoin="round"/>
<path d="M61.8086 27.8496V33.8953" stroke="#FF6A3C" stroke-width="3" stroke-linecap="round" stroke-linejoin="round"/>
<path d="M43.7003 50.4998C40.0227 49.859 36.6238 48.1038 34.0049 45.457" stroke="#FF6A3C" stroke-width="3" stroke-linecap="round" stroke-linejoin="round"/>
<path d="M39.0751 70.6421L19.1271 79.9196L26.928 64.3178C23.7798 61.9497 21.1888 58.9129 19.4057 55.4025C17.5948 51.8921 16.6197 48.0196 16.5361 44.0912C16.5361 28.4616 32.0822 15.7852 51.2501 15.7852C70.418 15.7852 85.9641 28.4616 85.9641 44.0912" stroke="#FF6A3C" stroke-width="3" stroke-linecap="round" stroke-linejoin="round"/>
<path d="M44.3125 63.7063C44.3125 73.0952 53.6457 80.7011 65.1242 80.7011C67.6037 80.7011 70.0554 80.3389 72.4236 79.6145L84.4035 85.1866L79.723 75.8255C81.6175 74.4046 83.1498 72.5937 84.2363 70.4763C85.3229 68.3868 85.908 66.0465 85.9637 63.6784C85.9637 54.2895 76.6305 46.6836 65.1242 46.6836C53.6178 46.6836 44.3125 54.3452 44.3125 63.7063Z" stroke="#FF6A3C" stroke-width="3" stroke-linecap="round" stroke-linejoin="round"/>
<path d="M55.763 64.8209C55.3451 64.8209 55.0107 64.4865 55.0107 64.0686C55.0107 63.6507 55.3451 63.3164 55.763 63.3164" stroke="#FF6A3C" stroke-width="3"/>
<path d="M55.7637 64.8209C56.1816 64.8209 56.5159 64.4865 56.5159 64.0686C56.5159 63.6507 56.1816 63.3164 55.7637 63.3164" stroke="#FF6A3C" stroke-width="3"/>
<path d="M64.8177 64.8209C64.3998 64.8209 64.0654 64.4865 64.0654 64.0686C64.0654 63.6507 64.3998 63.3164 64.8177 63.3164" stroke="#FF6A3C" stroke-width="3"/>
<path d="M64.8184 64.8209C65.2363 64.8209 65.5706 64.4865 65.5706 64.0686C65.5706 63.6507 65.2363 63.3164 64.8184 63.3164" stroke="#FF6A3C" stroke-width="3"/>
<path d="M73.8723 64.8209C73.4544 64.8209 73.1201 64.4865 73.1201 64.0686C73.1201 63.6507 73.4544 63.3164 73.8723 63.3164" stroke="#FF6A3C" stroke-width="3"/>
<path d="M73.8721 64.8209C74.29 64.8209 74.6243 64.4865 74.6243 64.0686C74.6243 63.6507 74.29 63.3164 73.8721 63.3164" stroke="#FF6A3C" stroke-width="3"/>
</svg>
