<svg width="24" height="24" viewBox="0 0 24 24" fill="none" xmlns="http://www.w3.org/2000/svg">
<path d="M11.7823 9.62888C12.581 8.81276 13.621 8.27884 14.8308 8.27884C16.1013 8.27884 17.3198 8.78355 18.2182 9.68194C19.1166 10.5803 19.6213 11.7988 19.6213 13.0693V19.6018H17.8793V13.0693C17.8793 12.2608 17.5581 11.4854 16.9864 10.9137C16.4147 10.342 15.6393 10.0208 14.8308 10.0208C14.0223 10.0208 13.2469 10.342 12.6752 10.9137C12.1035 11.4854 11.7823 12.2608 11.7823 13.0693V19.6018H10.0404V8.71434H11.7823V9.62888ZM5.6854 6.97235C5.33889 6.97235 5.00658 6.83471 4.76157 6.58969C4.51655 6.34468 4.37891 6.01237 4.37891 5.66586C4.37891 5.31936 4.51655 4.98705 4.76157 4.74204C5.00658 4.49702 5.33889 4.35938 5.6854 4.35938C6.0319 4.35938 6.36421 4.49702 6.60922 4.74204C6.85424 4.98705 6.99189 5.31936 6.99189 5.66586C6.99189 6.01237 6.85424 6.34468 6.60922 6.58969C6.36421 6.83471 6.0319 6.97235 5.6854 6.97235ZM4.8144 8.71434H6.55639V19.6018H4.8144V8.71434Z" fill="#1E1E1E"/>
</svg>
