<svg width="74" height="34" viewBox="0 0 74 34" fill="none" xmlns="http://www.w3.org/2000/svg">
<path d="M65.3533 22.7916C59.481 22.7916 56.5449 19.5509 56.5449 13.0697V5.17469C56.5449 4.06548 56.3927 3.24989 56.0882 2.7279C55.7837 2.18417 55.1747 1.91231 54.2612 1.91231V0.933594H57.8499C58.6328 0.933594 59.2309 1.06409 59.6442 1.32508C60.0574 1.58607 60.351 2.02105 60.525 2.63003C60.699 3.21726 60.786 4.06548 60.786 5.17469L60.8186 14.0484C60.8404 16.3538 61.2862 18.1481 62.1562 19.4313C63.0479 20.6928 64.3311 21.3235 66.0058 21.3235C68.2242 21.3235 69.8337 20.671 70.8341 19.3661C71.8563 18.0394 72.3675 15.9406 72.3675 13.0697V0.933594H73.9986V13.0697C73.9986 16.2668 73.3244 18.6918 71.976 20.3448C70.6275 21.976 68.42 22.7916 65.3533 22.7916Z" fill="#333333"/>
<path d="M43.8438 25.9561C44.8877 25.8256 45.6489 25.3036 46.1274 24.3901C46.6276 23.4984 46.8778 21.9542 46.8778 19.7575V0.933594H51.1189V19.7575C51.1189 21.6932 50.9122 23.1613 50.499 24.1618C50.1075 25.184 49.4007 25.9017 48.3785 26.3149C47.3562 26.7282 45.8447 26.9348 43.8438 26.9348V25.9561Z" fill="#333333"/>
<path d="M33.6224 22.7916C27.7501 22.7916 24.8139 19.5509 24.8139 13.0697V5.17469C24.8139 4.06548 24.6617 3.24989 24.3572 2.7279C24.0527 2.18417 23.4437 1.91231 22.5303 1.91231V0.933594H26.1189C26.9019 0.933594 27.5 1.06409 27.9132 1.32508C28.3264 1.58607 28.6201 2.02105 28.794 2.63003C28.968 3.21726 29.055 4.06548 29.055 5.17469L29.0877 14.0484C29.1094 16.3538 29.5553 18.1481 30.4252 19.4313C31.317 20.6928 32.6002 21.3235 34.2749 21.3235C36.4933 21.3235 38.1027 20.671 39.1032 19.3661C40.1254 18.0394 40.6365 15.9406 40.6365 13.0697V0.933594H42.2677V13.0697C42.2677 16.2668 41.5935 18.6918 40.245 20.3448C38.8966 21.976 36.689 22.7916 33.6224 22.7916Z" fill="#333333"/>
<path d="M10.1134 13.8526L4.33897 5.17469C3.68649 4.23947 2.96877 3.42388 2.1858 2.7279C1.42457 2.03193 0.695975 1.65132 0 1.58607V0.933594H3.556C4.66521 0.933594 5.66567 1.28158 6.55739 1.97756C7.47085 2.67353 8.24295 3.52175 8.87368 4.52221L13.3105 11.2101L19.6395 0.933594H21.7601L14.3545 12.9718V22.4653H10.1134V13.8526Z" fill="#333333"/>
<path fill-rule="evenodd" clip-rule="evenodd" d="M47.6844 31.435C50.9467 31.435 53.7476 29.9007 56.0026 28.3203L56.9388 29.6561C54.6021 31.2937 51.4579 33.0662 47.6844 33.0662C43.9745 33.0662 40.5808 31.7648 38.0049 29.6143L39.0503 28.3621C41.3345 30.2691 44.3587 31.435 47.6844 31.435Z" fill="#333333"/>
</svg>
