<svg width="23" height="23" viewBox="0 0 23 23" fill="none" xmlns="http://www.w3.org/2000/svg">
<path fill-rule="evenodd" clip-rule="evenodd" d="M4.0791 7.47391V15.9555C4.0791 16.5179 4.3025 17.0572 4.70015 17.4548C5.0978 17.8525 5.63713 18.0759 6.1995 18.0759H16.8015C17.3638 18.0759 17.9032 17.8525 18.3008 17.4548C18.6985 17.0572 18.9219 16.5179 18.9219 15.9555V7.47391C18.9219 6.91155 18.6985 6.37222 18.3008 5.97456C17.9032 5.57691 17.3638 5.35352 16.8015 5.35352H6.1995C5.63713 5.35352 5.0978 5.57691 4.70015 5.97456C4.3025 6.37222 4.0791 6.91155 4.0791 7.47391V7.47391Z" stroke="white" stroke-width="1.42897" stroke-linecap="round" stroke-linejoin="round"/>
<path d="M6.19922 8.53516L11.5002 11.7157L16.8012 8.53516" stroke="white" stroke-width="1.42897" stroke-linecap="round" stroke-linejoin="round"/>
</svg>
