<svg width="950" height="562" viewBox="0 0 950 562" fill="none" xmlns="http://www.w3.org/2000/svg">
<rect width="950" height="562" fill="white"/>
<rect x="173.973" y="88.252" width="137.405" height="19.084" fill="#FFF0E2"/>
<path d="M186.688 93.4926H193.238V95.5308H186.688V93.4926ZM185.749 78.6758H194.223V96.9965H192.047V80.714H187.833V97.2942H185.749V78.6758ZM178.81 80.6682H180.986V85.1797C180.986 89.0728 180.184 94.5232 175.513 97.8896C175.238 97.4316 174.436 96.5842 173.978 96.2636C178.33 93.1491 178.81 88.6377 178.81 85.1568V80.6682ZM176.658 79.6835H184.444V81.6987H176.658V79.6835ZM174.276 85.8667H185.062V87.9277H174.276V85.8667ZM180.391 88.9583C181.307 89.7827 184.398 93.2865 185.108 94.1339L183.643 95.9659C182.635 94.4316 180.162 91.4316 179.062 90.1949L180.391 88.9583ZM176.658 76.6835L178.742 77.0957C178.123 80.1415 177.024 83.1186 175.696 85.0652C175.307 84.7216 174.413 84.1033 173.933 83.8285C175.238 82.111 176.154 79.4087 176.658 76.6835ZM203.36 79.5919H217.971V81.3781H203.36V79.5919ZM209.383 80.3705L211.879 80.5537C211.421 81.7445 210.803 83.0041 210.345 83.8285L208.559 83.5537C208.879 82.5919 209.246 81.2865 209.383 80.3705ZM213.391 76.6835L215.497 77.2789C214.742 78.4239 213.963 79.6377 213.299 80.4163L211.581 79.8667C212.223 78.9965 212.978 77.6453 213.391 76.6835ZM205.559 77.4392L207.276 76.7522C207.849 77.485 208.536 78.5155 208.833 79.1797L207.047 79.9812C206.772 79.2942 206.131 78.2178 205.559 77.4392ZM207.23 87.5384V89.1644H213.963V87.5384H207.23ZM207.23 90.6071V92.256H213.963V90.6071H207.23ZM207.23 84.4697V86.0957H213.963V84.4697H207.23ZM205.192 82.8896H216.116V93.8361H205.192V82.8896ZM197.978 77.6911L199.604 76.7064C200.658 77.8056 201.94 79.2484 202.581 80.1873L200.91 81.3781C200.291 80.4163 199.009 78.8132 197.978 77.6911ZM197.268 81.9965H202.215V83.7598H197.268V81.9965ZM201.597 92.256C202.925 95.3018 205.788 95.6911 210.162 95.714C212.566 95.714 216.116 95.5766 218.566 95.3705C218.268 95.8056 217.971 96.8132 217.856 97.4087C215.612 97.5461 212.704 97.5919 210.116 97.5919C204.78 97.5919 201.849 96.9277 200.154 92.8972L201.597 92.256ZM201.528 87.6529H202.032L202.398 87.6071L203.452 87.9965C202.673 92.9659 200.772 96.2636 198.162 97.9812C197.887 97.569 197.177 96.8132 196.765 96.5155C199.215 95.0041 200.91 92.1186 201.528 87.9965V87.6529ZM197.635 89.6911V88.111L198.528 87.6529H202.192L202.169 89.3705H199.009C198.436 89.3705 197.818 89.5079 197.635 89.6911ZM197.635 89.6911C197.497 89.2331 197.085 88.2713 196.879 87.859C197.246 87.7674 197.612 87.6071 198.024 87.1491C198.734 86.4621 200.91 83.4392 201.688 82.2026V82.1339L202.284 81.8819L203.658 82.5232C202.559 84.0804 200.475 86.9659 199.169 88.4545C199.169 88.4545 197.635 89.1873 197.635 89.6911ZM232.49 93.5842H238.948V95.6224H232.49V93.5842ZM231.391 79.111H239.978V96.9965H237.826V81.172H233.429V97.3629H231.391V79.111ZM220.65 89.2102L222.093 87.8132C224.818 89.9201 228.551 92.9888 230.314 94.9812L228.711 96.6529C227.039 94.6148 223.421 91.4316 220.65 89.2102ZM220.65 89.2102C221.612 86.0728 222.665 80.8056 223.009 76.798L225.299 76.9354C224.818 81.1491 223.696 86.5308 222.757 89.8972L220.65 89.2102ZM227.635 79.6377H229.742V82.4087C229.742 86.9201 229.055 93.5842 221.36 97.9125C221.039 97.4316 220.33 96.6529 219.826 96.2865C227.017 92.3705 227.635 86.3934 227.635 82.4087V79.6377ZM219.803 81.1262C222.551 81.0117 226.719 80.8056 230.658 80.5995L230.635 82.6148C226.856 82.8896 222.872 83.1186 220.032 83.3018L219.803 81.1262ZM249.917 78.8132H264.162V80.8743H249.917V78.8132ZM260.429 79.569H262.604V95.2102C262.604 96.5842 262.284 97.2026 261.391 97.569C260.475 97.8896 258.94 97.9583 256.742 97.9354C256.65 97.3171 256.307 96.3552 255.986 95.714C257.681 95.7827 259.33 95.7827 259.81 95.7598C260.291 95.7598 260.429 95.6224 260.429 95.1873V79.569ZM250.421 83.7827H252.459V93.4468H250.421V83.7827ZM251.337 83.7827H257.818V91.8896H251.337V89.9888H255.803V85.6835H251.337V83.7827ZM247.948 76.6835L249.986 77.3247C248.589 81.172 246.322 85.1339 243.94 87.6987C243.734 87.1949 243.139 86.0041 242.749 85.5003C244.833 83.3705 246.78 80.027 247.948 76.6835ZM245.841 82.8667L247.971 80.714L247.994 80.7369V97.9125H245.841V82.8667ZM271.261 95.6224H282.94V97.2713H271.261V95.6224ZM266.978 83.0957H286.055V86.9888H283.856V84.7674H269.062V86.9888H266.978V83.0957ZM271.146 85.9812H283.215V90.8132H271.146V89.2331H281.108V87.5842H271.146V85.9812ZM271.261 92.1644H284.429V97.9354H282.276V93.8132H271.261V92.1644ZM269.589 85.9812H271.788V97.9812H269.589V85.9812ZM274.833 81.7216L276.757 81.3323C277.192 81.9736 277.673 82.9125 277.833 83.5308L275.795 83.9888C275.635 83.3934 275.223 82.4316 274.833 81.7216ZM268.948 78.2178H276.184V79.9125H268.948V78.2178ZM278.406 78.2407H286.879V79.9125H278.406V78.2407ZM269.246 76.5003L271.169 77.0499C270.276 79.2484 268.742 81.4697 267.299 82.9125C266.978 82.5232 266.246 81.7903 265.81 81.4468C267.207 80.2102 268.513 78.3781 269.246 76.5003ZM278.704 76.5003L280.696 77.0041C279.986 78.8361 278.749 80.6453 277.49 81.7674C277.123 81.4239 276.345 80.7598 275.864 80.485C277.078 79.5003 278.131 78.0346 278.704 76.5003ZM270.528 80.6453L271.833 79.5232C272.589 80.1415 273.551 81.0575 274.032 81.63L272.635 82.8667C272.2 82.2713 271.261 81.3094 270.528 80.6453ZM280.513 80.7369L281.91 79.5919C282.757 80.2331 283.879 81.172 284.452 81.8132L282.986 83.0957C282.482 82.4316 281.383 81.4468 280.513 80.7369ZM299.108 83.7827V86.3018H306.917V83.7827H299.108ZM299.108 79.569V82.0423H306.917V79.569H299.108ZM297.139 77.714H309.001V88.1568H297.139V77.714ZM296.91 90.5384H309.276V92.5079H296.91V90.5384ZM295.215 95.2331H310.055V97.2026H295.215V95.2331ZM288.78 78.1262H296.131V80.1644H288.78V78.1262ZM289.009 84.7445H295.765V86.7598H289.009V84.7445ZM288.528 93.4926C290.429 92.9659 293.268 92.0728 295.948 91.1797L296.337 93.2636C293.818 94.111 291.139 95.0041 289.032 95.6911L288.528 93.4926ZM291.482 78.9277H293.566V93.0804L291.482 93.4468V78.9277ZM302.108 78.5384H303.963V87.2636H304.146V96.1491H301.925V87.2636H302.108V78.5384ZM184.238 129.34H185.36V135.706H184.238V129.34ZM176.36 130.943H193.055V131.859H177.459V135.34H176.36V130.943ZM192.574 130.943H193.673V134.058C193.673 134.676 193.513 134.974 192.963 135.157C192.368 135.317 191.314 135.294 189.551 135.294C189.482 134.996 189.299 134.676 189.139 134.378C190.673 134.424 191.772 134.424 192.162 134.401C192.505 134.378 192.574 134.287 192.574 134.058V130.943ZM184.994 117.111H194.978V118.027H184.994V117.111ZM175.673 116.195H184.123V116.996H175.673V116.195ZM175.307 120.409H184.444V121.21H175.307V120.409ZM174.872 118.302H184.833V119.103H174.872V118.302ZM186.276 119.149L187.055 118.668C187.971 119.47 188.978 120.638 189.413 121.416L188.612 121.966C188.177 121.141 187.192 119.974 186.276 119.149ZM174.734 123.111C177.23 122.905 181.032 122.561 184.833 122.172V122.996C181.169 123.363 177.436 123.752 174.849 124.027L174.734 123.111ZM191.223 114.958H192.276V122.561C192.276 123.18 192.116 123.454 191.635 123.638C191.108 123.798 190.238 123.798 188.772 123.798C188.726 123.523 188.543 123.157 188.383 122.905C189.597 122.905 190.559 122.905 190.833 122.905C191.131 122.882 191.223 122.813 191.223 122.538V114.958ZM179.291 114.935H180.322V118.806H179.291V114.935ZM179.291 118.851H180.322V123.18H179.291V118.851ZM178.375 127.508V128.767H191.383V127.508H178.375ZM178.375 125.47V126.683H191.383V125.47H178.375ZM177.345 124.622H192.436V129.615H177.345V124.622ZM184.696 122.974L185.726 123.294C185.383 123.958 185.039 124.6 184.719 125.08L183.872 124.783C184.146 124.256 184.513 123.454 184.696 122.974ZM206.982 120.248H216.99V121.302H206.982V120.248ZM216.463 120.248H217.54C217.54 120.248 217.54 120.752 217.54 120.912C217.288 130.714 217.059 133.943 216.303 134.882C215.914 135.386 215.479 135.546 214.791 135.569C214.104 135.615 212.822 135.592 211.608 135.523C211.562 135.18 211.448 134.722 211.265 134.424C212.662 134.538 213.967 134.538 214.425 134.538C214.86 134.561 215.112 134.516 215.318 134.218C215.959 133.508 216.234 130.141 216.463 120.523V120.248ZM211.265 114.912H212.341C212.318 123.248 212.295 131.653 205.791 135.775C205.608 135.523 205.196 135.18 204.921 134.974C211.288 131.149 211.242 122.905 211.265 114.912ZM198.967 116.126H206.135V131.012H205.059V117.157H199.998V132.477H198.967V116.126ZM197.295 132.34C199.791 131.836 203.753 130.989 207.532 130.141L207.624 131.149C203.982 131.996 200.181 132.89 197.501 133.462L197.295 132.34ZM199.494 121.141H205.517V122.172H199.494V121.141ZM199.494 126.134H205.517V127.141H199.494V126.134ZM225.238 133.92H237.902V134.859H225.238V133.92ZM222.101 121.37H240.147V125.035H239.024V122.309H223.177V125.035H222.101V121.37ZM225.147 124.004H237.353V128.309H225.147V127.37H236.276V124.943H225.147V124.004ZM225.192 130.21H238.566V135.661H237.467V131.172H225.192V130.21ZM224.482 124.004H225.582V135.729H224.482V124.004ZM229.773 119.813L230.757 119.607C231.17 120.225 231.605 121.096 231.742 121.668L230.711 121.943C230.551 121.37 230.139 120.5 229.773 119.813ZM223.498 116.699H230.826V117.661H223.498V116.699ZM232.933 116.722H241.2V117.683H232.933V116.722ZM224.139 114.752L225.147 115.027C224.253 117.18 222.788 119.264 221.368 120.661C221.185 120.477 220.773 120.111 220.521 119.928C221.986 118.622 223.337 116.722 224.139 114.752ZM233.528 114.775L234.582 115.004C233.918 116.813 232.75 118.531 231.513 119.63C231.33 119.47 230.918 119.103 230.62 118.943C231.902 117.912 232.956 116.401 233.528 114.775ZM225.238 118.302L225.971 117.775C226.727 118.462 227.689 119.447 228.17 120.042L227.391 120.638C226.91 120.019 225.971 119.012 225.238 118.302ZM235.223 118.485L235.979 117.89C236.803 118.577 237.857 119.516 238.383 120.157L237.628 120.821C237.101 120.18 236.07 119.195 235.223 118.485ZM252.838 121.508V125.035H262.273V121.508H252.838ZM252.838 117.042V120.523H262.273V117.042H252.838ZM251.807 116.035H263.349V126.042H251.807V116.035ZM251.441 129.157H263.715V130.187H251.441V129.157ZM249.586 133.92H264.494V134.951H249.586V133.92ZM243.631 116.607H250.502V117.661H243.631V116.607ZM243.883 123.248H250.227V124.302H243.883V123.248ZM243.402 132.065C245.189 131.538 247.822 130.645 250.433 129.752L250.616 130.851C248.189 131.653 245.647 132.546 243.723 133.187L243.402 132.065ZM246.677 117.019H247.754V131.287L246.677 131.561V117.019ZM257.028 116.584H258.036V125.516H258.082V134.355H256.96V125.516H257.028V116.584ZM266.811 122.516H287.101V123.546H266.811V122.516ZM268.826 118.027H282.2V119.058H268.826V118.027ZM272.376 130.027H283.483V130.989H272.376V130.027ZM272.376 133.92H283.483V134.928H272.376V133.92ZM274.987 114.912H276.086V123.042H274.987V114.912ZM284.994 115.76L285.933 116.309C281.284 122.195 274.437 126.661 267.177 129.5C267.017 129.248 266.651 128.813 266.399 128.561C273.773 125.905 280.62 121.416 284.994 115.76ZM271.78 126.294H284.17V135.638H283.048V127.302H272.88V135.729H271.78V126.294ZM289.395 127.325C291.433 126.775 294.479 125.859 297.387 124.966L297.525 125.974C294.823 126.821 291.937 127.76 289.784 128.401L289.395 127.325ZM289.693 119.699H297.273V120.752H289.693V119.699ZM293.22 114.935H294.296V134.08C294.296 134.836 294.067 135.18 293.586 135.34C293.082 135.546 292.212 135.546 290.655 135.546C290.609 135.271 290.426 134.813 290.288 134.493C291.456 134.538 292.464 134.516 292.762 134.516C293.082 134.493 293.22 134.401 293.22 134.08V114.935ZM297.571 121.622L309.731 120.294L309.868 121.325L297.685 122.676L297.571 121.622ZM304.052 116.241L304.876 115.645C306.09 116.584 307.487 117.958 308.082 118.92L307.212 119.584C306.616 118.622 305.242 117.203 304.052 116.241ZM300.96 114.958H302.059C302.586 125.47 304.716 134.103 308.403 134.401C309.067 134.447 309.479 133.119 309.754 130.554C309.983 130.76 310.441 131.012 310.716 131.103C310.258 134.493 309.525 135.729 308.426 135.661C303.616 135.386 301.578 126.18 300.96 114.958ZM307.693 123.638L308.609 124.187C306.548 128.653 302.403 132.935 297.914 134.905C297.731 134.607 297.365 134.264 297.09 134.035C301.578 132.225 305.769 127.966 307.693 123.638ZM313.972 126.935H324.575V127.943H313.972V126.935ZM318.643 124.21H319.697V132.844H318.643V124.21ZM313.147 133.302C315.964 132.798 320.475 131.951 324.781 131.103L324.849 132.134C320.727 132.935 316.376 133.806 313.422 134.401L313.147 133.302ZM313.33 116.516H325.01V117.546H313.33V116.516ZM320.59 119.241L321.414 118.76C322.743 120.294 324.323 122.401 325.033 123.683L324.185 124.279C323.452 122.974 321.918 120.821 320.59 119.241ZM326.521 116.79H327.575V130.668H326.521V116.79ZM331.124 115.348H332.201V133.485C332.201 134.355 331.972 134.745 331.399 134.951C330.781 135.134 329.613 135.157 328.01 135.157C327.941 134.836 327.758 134.309 327.552 133.989C328.972 134.035 330.254 134.035 330.666 134.012C331.033 133.989 331.124 133.897 331.124 133.508V115.348ZM314.315 123.752C314.246 123.5 314.086 122.951 313.926 122.653C314.292 122.607 314.636 122.172 315.048 121.622C315.483 121.05 316.949 118.829 317.796 116.722L318.872 117.203C317.796 119.378 316.445 121.577 315.14 123.088V123.111C315.14 123.111 314.315 123.454 314.315 123.752ZM314.315 123.752V122.928L315.025 122.516L323.132 121.714C323.269 122.012 323.498 122.378 323.659 122.607C315.598 123.432 314.796 123.546 314.315 123.752ZM339.35 123.248H353.159V124.325H339.35V123.248ZM339.35 128.287H353.159V129.34H339.35V128.287ZM339.35 133.325H353.159V134.401H339.35V133.325ZM338.617 118.141H353.914V135.615H352.792V119.195H339.716V135.775H338.617V118.141ZM345.418 114.867L346.632 115.073C346.151 116.355 345.624 117.844 345.098 118.806L344.136 118.6C344.594 117.569 345.143 115.943 345.418 114.867ZM361.842 123.844H375.674V124.92H361.842V123.844ZM360.972 116.309H376.453V126.454H375.308V117.409H360.972V116.309ZM361.27 123.844H362.369V132.569C362.369 133.783 362.941 134.08 365.506 134.08C366.743 134.08 373.453 134.08 375.147 134.08C377.667 134.08 378.056 133.348 378.331 129.729C378.628 129.958 379.109 130.141 379.453 130.21C379.109 134.149 378.514 135.203 375.056 135.203C374.254 135.203 366.399 135.203 365.644 135.203C362.323 135.203 361.27 134.722 361.27 132.569V123.844ZM383.533 118.577H390.472V133.279H383.533V132.248H389.419V119.607H383.533V118.577ZM382.869 118.577H383.922V135.18H382.869V118.577ZM383.441 125.103H390.014V126.111H383.441V125.103ZM386.533 114.844L387.701 115.119C387.266 116.447 386.716 118.027 386.258 119.035L385.342 118.76C385.777 117.706 386.281 115.989 386.533 114.844ZM393.861 118.554H401.098V119.63H393.861V118.554ZM400.686 118.554H401.762C401.762 118.554 401.762 119.058 401.762 119.241C401.373 129.867 401.029 133.37 400.113 134.424C399.678 134.974 399.243 135.134 398.487 135.18C397.777 135.225 396.449 135.18 395.19 135.111C395.144 134.767 395.029 134.309 394.823 134.035C396.335 134.149 397.709 134.172 398.212 134.172C398.67 134.172 398.945 134.126 399.174 133.806C399.953 132.981 400.342 129.248 400.686 118.829V118.554ZM394.571 114.752L395.648 115.004C394.846 118.416 393.564 121.714 391.983 123.89C391.777 123.729 391.319 123.432 391.045 123.271C392.625 121.187 393.838 118.004 394.571 114.752ZM393.564 124.119L394.411 123.615C395.808 125.264 397.434 127.508 398.212 128.859L397.251 129.477C396.518 128.08 394.915 125.79 393.564 124.119ZM174.413 162.485H195.23V163.699H174.413V162.485ZM197.887 155.386H217.536V156.416H197.887V155.386ZM202.719 161.935H213.253V162.829H202.719V161.935ZM202.719 164.592H213.253V165.508H202.719V164.592ZM197.658 167.386H217.719V168.37H197.658V167.386ZM210.276 155.661C212.017 157.882 215.406 160.218 218.177 161.271C217.925 161.477 217.581 161.89 217.421 162.164C214.673 160.974 211.261 158.5 209.383 156.073L210.276 155.661ZM202.307 159.187H213.116V160.149H203.406V167.821H202.307V159.187ZM210.986 169.332L211.879 168.851C213.368 170.157 215.246 172.012 216.207 173.134L215.268 173.729C214.352 172.584 212.497 170.683 210.986 169.332ZM206.818 152.912L208.032 153.119C206.429 156.462 203.131 160.08 197.978 162.348C197.818 162.096 197.497 161.706 197.246 161.523C202.284 159.416 205.536 155.912 206.818 152.912ZM199.994 173.065C199.925 172.813 199.765 172.264 199.627 171.943C200.017 171.92 200.429 171.645 200.933 171.21C201.482 170.821 203.337 169.172 204.597 167.523L205.627 168.073C204.116 169.79 202.444 171.37 200.841 172.424V172.47C200.841 172.47 199.994 172.79 199.994 173.065ZM199.994 173.065V172.309L200.841 171.874L213.757 171.141C213.894 171.416 214.123 171.806 214.261 172.012C201.688 172.767 200.612 172.836 199.994 173.065ZM224.955 171.92H237.62V172.859H224.955V171.92ZM221.818 159.37H239.864V163.035H238.742V160.309H222.894V163.035H221.818V159.37ZM224.864 162.004H237.07V166.309H224.864V165.37H235.994V162.943H224.864V162.004ZM224.91 168.21H238.284V173.661H237.184V169.172H224.91V168.21ZM224.2 162.004H225.299V173.729H224.2V162.004ZM229.49 157.813L230.475 157.607C230.887 158.225 231.322 159.096 231.459 159.668L230.429 159.943C230.268 159.37 229.856 158.5 229.49 157.813ZM223.215 154.699H230.543V155.661H223.215V154.699ZM232.65 154.722H240.917V155.683H232.65V154.722ZM223.856 152.752L224.864 153.027C223.971 155.18 222.505 157.264 221.085 158.661C220.902 158.477 220.49 158.111 220.238 157.928C221.704 156.622 223.055 154.722 223.856 152.752ZM233.246 152.775L234.299 153.004C233.635 154.813 232.467 156.531 231.23 157.63C231.047 157.47 230.635 157.103 230.337 156.943C231.62 155.912 232.673 154.401 233.246 152.775ZM224.955 156.302L225.688 155.775C226.444 156.462 227.406 157.447 227.887 158.042L227.108 158.638C226.627 158.019 225.688 157.012 224.955 156.302ZM234.94 156.485L235.696 155.89C236.52 156.577 237.574 157.516 238.101 158.157L237.345 158.821C236.818 158.18 235.788 157.195 234.94 156.485ZM252.413 159.508V163.035H261.849V159.508H252.413ZM252.413 155.042V158.523H261.849V155.042H252.413ZM251.383 154.035H262.925V164.042H251.383V154.035ZM251.017 167.157H263.291V168.187H251.017V167.157ZM249.162 171.92H264.07V172.951H249.162V171.92ZM243.207 154.607H250.078V155.661H243.207V154.607ZM243.459 161.248H249.803V162.302H243.459V161.248ZM242.978 170.065C244.765 169.538 247.398 168.645 250.009 167.752L250.192 168.851C247.765 169.653 245.223 170.546 243.299 171.187L242.978 170.065ZM246.253 155.019H247.33V169.287L246.253 169.561V155.019ZM256.604 154.584H257.612V163.516H257.658V172.355H256.536V163.516H256.604V154.584ZM266.704 157.058H286.169V158.111H266.704V157.058ZM273.62 162.325H283.009V163.401H273.62V162.325ZM282.665 162.325H283.833C283.833 162.325 283.81 162.737 283.765 162.943C283.284 169.561 282.826 172.012 281.955 172.882C281.52 173.34 281.062 173.454 280.284 173.5C279.505 173.523 278.017 173.5 276.459 173.363C276.436 173.042 276.299 172.584 276.07 172.287C277.765 172.447 279.368 172.47 279.963 172.47C280.467 172.47 280.765 172.424 281.017 172.218C281.749 171.531 282.23 169.012 282.665 162.531V162.325ZM273.23 157.607H274.421C274.123 163.584 273.436 170.5 266.955 173.752C266.795 173.5 266.406 173.111 266.131 172.905C272.429 169.882 272.978 163.195 273.23 157.607ZM275.337 153.279L276.368 152.867C277.009 153.966 277.719 155.386 278.039 156.325L276.94 156.806C276.642 155.867 275.933 154.401 275.337 153.279ZM304.009 153.806L304.765 153.164C306.047 154.012 307.559 155.248 308.291 156.073L307.513 156.829C306.78 155.981 305.291 154.676 304.009 153.806ZM289.146 157.424H309.436V158.5H289.146V157.424ZM289.902 162.393H300.139V163.47H289.902V162.393ZM294.413 162.92H295.513V171.325H294.413V162.92ZM289.307 171.943C292.009 171.348 296.497 170.34 300.803 169.332L300.894 170.34C296.91 171.325 292.627 172.355 289.696 173.019L289.307 171.943ZM301.055 153.027H302.246C302.246 164.363 304.49 172.63 307.696 172.63C308.406 172.63 308.681 171.37 308.841 168.187C309.093 168.416 309.528 168.645 309.849 168.76C309.62 172.561 309.116 173.775 307.604 173.775C303.276 173.775 301.169 164.409 301.055 153.027Z" fill="black"/>
<path d="M486.314 124.511C486.314 124.293 486.403 124.084 486.561 123.93C486.719 123.776 486.934 123.689 487.157 123.689L505.041 123.689L498.083 117.014C498.004 116.938 497.941 116.848 497.898 116.749C497.854 116.65 497.832 116.543 497.831 116.435C497.83 116.327 497.851 116.22 497.892 116.12C497.934 116.019 497.995 115.928 498.072 115.851C498.15 115.774 498.243 115.713 498.344 115.671C498.446 115.629 498.556 115.606 498.666 115.605C498.89 115.604 499.105 115.689 499.265 115.841L507.69 123.924C507.693 123.927 507.697 123.931 507.701 123.935C507.78 124.013 507.842 124.105 507.883 124.207C507.925 124.309 507.945 124.418 507.943 124.527C507.941 124.637 507.916 124.745 507.87 124.845C507.825 124.945 507.759 125.035 507.677 125.11L499.265 133.181C499.186 133.257 499.092 133.317 498.99 133.357C498.887 133.398 498.777 133.418 498.667 133.417C498.556 133.416 498.447 133.394 498.345 133.352C498.243 133.31 498.15 133.249 498.073 133.172C497.995 133.095 497.934 133.003 497.892 132.903C497.851 132.803 497.83 132.696 497.831 132.588C497.832 132.48 497.854 132.374 497.898 132.274C497.941 132.175 498.004 132.085 498.083 132.009L505.041 125.333L487.157 125.333C486.934 125.333 486.719 125.247 486.561 125.093C486.403 124.938 486.314 124.729 486.314 124.511Z" fill="#FF6A3C"/>
<circle opacity="0.6" cx="684.151" cy="124.511" r="93.5115" fill="#FF6A3C"/>
<path d="M680.491 115.168H683.341C683.341 115.168 683.341 115.957 683.29 116.288C683.036 122.649 682.73 125.118 682.043 126.008C681.509 126.67 680.949 126.873 680.16 127C679.473 127.102 678.354 127.102 677.183 127.077C677.132 126.288 676.827 125.168 676.394 124.43C677.387 124.532 678.303 124.558 678.761 124.558C679.117 124.558 679.346 124.481 679.575 124.227C680.008 123.693 680.288 121.479 680.491 115.626V115.168ZM675.351 116.288H678.048C677.667 121.326 676.649 125.677 671.28 128.145C670.975 127.484 670.211 126.492 669.601 125.983C674.359 123.998 675.02 120.334 675.351 116.288ZM670.313 115.168H681.484V117.713H670.313V115.168ZM672.247 128.858H674.842V134.43C674.842 135.143 674.97 135.245 675.733 135.245C676.064 135.245 677.489 135.245 677.921 135.245C678.634 135.245 678.786 134.863 678.863 132.14C679.397 132.573 680.491 132.955 681.178 133.133C680.924 136.721 680.237 137.611 678.201 137.611C677.667 137.611 675.835 137.611 675.351 137.611C672.832 137.611 672.247 136.848 672.247 134.456V128.858ZM669.982 129.316L672.094 129.901C671.84 131.962 671.382 134.354 670.517 135.805L668.43 134.939C669.244 133.514 669.753 131.25 669.982 129.316ZM674.435 127.891L676.216 126.746C677.31 127.866 678.532 129.443 679.066 130.512L677.132 131.835C676.649 130.741 675.478 129.087 674.435 127.891ZM679.931 128.985L681.992 128.247C682.959 129.978 683.926 132.217 684.206 133.718L681.992 134.558C681.738 133.082 680.873 130.741 679.931 128.985ZM670.008 119.774L671.636 118.145C672.959 119.214 674.893 120.715 675.809 121.657L674.104 123.514C673.214 122.522 671.356 120.919 670.008 119.774ZM662.527 115.245L665.097 114.354C665.682 115.448 666.318 116.899 666.649 117.815L663.977 118.883C663.697 117.891 663.061 116.364 662.527 115.245ZM660.873 122.09H668.812V124.38H660.873V122.09ZM660.873 125.55H668.812V127.866H660.873V125.55ZM660.135 118.502H669.346V120.919H660.135V118.502ZM662.221 129.087H668.735V136.822H662.221V134.405H666.191V131.504H662.221V129.087ZM660.873 129.087H663.366V137.84H660.873V129.087ZM693.494 121.835H709.193V124.405H693.494V121.835ZM693.85 116.721H701.407V119.062H693.85V116.721ZM704.766 116.593L706.98 115.728C707.718 117.128 708.583 119.011 708.914 120.156L706.547 121.199C706.267 119.978 705.478 118.069 704.766 116.593ZM698.608 119.036L700.924 119.392C700.567 120.537 700.262 121.733 699.982 122.522L697.998 122.191C698.227 121.275 698.506 119.952 698.608 119.036ZM694.511 119.418L696.573 119.087C696.878 120.054 697.132 121.352 697.234 122.166L695.046 122.573C694.995 121.733 694.766 120.436 694.511 119.418ZM706.598 125.143L708.939 126.339C707.26 131.555 704.13 135.703 700.695 138.069C700.338 137.586 699.55 136.822 698.99 136.415C702.247 134.227 705.148 130.257 706.598 125.143ZM701.916 114.329H704.588C704.664 124.761 705.733 134.532 706.827 134.532C707.158 134.507 707.387 133.438 707.463 131.504C707.921 132.115 709.015 132.904 709.448 133.184C708.812 137.153 707.641 138.018 706.751 137.993C703.188 138.018 702.171 127.891 701.916 114.329ZM695.809 114.888L698.15 114.252C698.659 115.168 699.193 116.39 699.422 117.179L696.954 117.916C696.776 117.102 696.267 115.83 695.809 114.888ZM695.326 128.934H700.084V130.97H695.326V128.934ZM694.282 125.321H696.725V136.466H694.282V125.321ZM695.504 125.321H701.484V135.219H698.99V127.382H695.504V125.321ZM695.3 132.573H700.033V134.609H695.3V132.573ZM686.776 122.09H692.934V124.38H686.776V122.09ZM686.776 125.55H692.934V127.866H686.776V125.55ZM685.987 118.527H693.417V120.944H685.987V118.527ZM688.201 129.087H692.959V136.771H688.201V134.405H690.771V131.428H688.201V129.087ZM686.776 129.087H688.939V137.84H686.776V129.087ZM687.616 115.168L689.753 114.354C690.389 115.397 691.102 116.848 691.382 117.713L689.143 118.68C688.863 117.764 688.227 116.288 687.616 115.168Z" fill="white"/>
<rect x="173.973" y="244.74" width="160.305" height="19.084" fill="#FFF0E2"/>
<path d="M186.688 249.981H193.238V252.019H186.688V249.981ZM185.749 235.164H194.223V253.485H192.047V237.202H187.833V253.782H185.749V235.164ZM178.81 237.156H180.986V241.668C180.986 245.561 180.184 251.011 175.513 254.378C175.238 253.92 174.436 253.073 173.978 252.752C178.33 249.637 178.81 245.126 178.81 241.645V237.156ZM176.658 236.172H184.444V238.187H176.658V236.172ZM174.276 242.355H185.062V244.416H174.276V242.355ZM180.391 245.447C181.307 246.271 184.398 249.775 185.108 250.622L183.643 252.454C182.635 250.92 180.162 247.92 179.062 246.683L180.391 245.447ZM176.658 233.172L178.742 233.584C178.123 236.63 177.024 239.607 175.696 241.553C175.307 241.21 174.413 240.592 173.933 240.317C175.238 238.599 176.154 235.897 176.658 233.172ZM203.36 236.08H217.971V237.866H203.36V236.08ZM209.383 236.859L211.879 237.042C211.421 238.233 210.803 239.492 210.345 240.317L208.559 240.042C208.879 239.08 209.246 237.775 209.383 236.859ZM213.391 233.172L215.497 233.767C214.742 234.912 213.963 236.126 213.299 236.905L211.581 236.355C212.223 235.485 212.978 234.134 213.391 233.172ZM205.559 233.927L207.276 233.24C207.849 233.973 208.536 235.004 208.833 235.668L207.047 236.469C206.772 235.782 206.131 234.706 205.559 233.927ZM207.23 244.027V245.653H213.963V244.027H207.23ZM207.23 247.095V248.744H213.963V247.095H207.23ZM207.23 240.958V242.584H213.963V240.958H207.23ZM205.192 239.378H216.116V250.324H205.192V239.378ZM197.978 234.179L199.604 233.195C200.658 234.294 201.94 235.737 202.581 236.676L200.91 237.866C200.291 236.905 199.009 235.302 197.978 234.179ZM197.268 238.485H202.215V240.248H197.268V238.485ZM201.597 248.744C202.925 251.79 205.788 252.179 210.162 252.202C212.566 252.202 216.116 252.065 218.566 251.859C218.268 252.294 217.971 253.302 217.856 253.897C215.612 254.034 212.704 254.08 210.116 254.08C204.78 254.08 201.849 253.416 200.154 249.385L201.597 248.744ZM201.528 244.141H202.032L202.398 244.095L203.452 244.485C202.673 249.454 200.772 252.752 198.162 254.469C197.887 254.057 197.177 253.302 196.765 253.004C199.215 251.492 200.91 248.607 201.528 244.485V244.141ZM197.635 246.179V244.599L198.528 244.141H202.192L202.169 245.859H199.009C198.436 245.859 197.818 245.996 197.635 246.179ZM197.635 246.179C197.497 245.721 197.085 244.76 196.879 244.347C197.246 244.256 197.612 244.095 198.024 243.637C198.734 242.95 200.91 239.927 201.688 238.691V238.622L202.284 238.37L203.658 239.011C202.559 240.569 200.475 243.454 199.169 244.943C199.169 244.943 197.635 245.676 197.635 246.179ZM225.459 252.111H237.139V253.76H225.459V252.111ZM221.177 239.584H240.253V243.477H238.055V241.256H223.261V243.477H221.177V239.584ZM225.345 242.469H237.413V247.302H225.345V245.721H235.307V244.073H225.345V242.469ZM225.459 248.653H238.627V254.424H236.475V250.302H225.459V248.653ZM223.788 242.469H225.986V254.469H223.788V242.469ZM229.032 238.21L230.955 237.821C231.391 238.462 231.872 239.401 232.032 240.019L229.994 240.477C229.833 239.882 229.421 238.92 229.032 238.21ZM223.146 234.706H230.383V236.401H223.146V234.706ZM232.604 234.729H241.078V236.401H232.604V234.729ZM223.444 232.989L225.368 233.538C224.475 235.737 222.94 237.958 221.497 239.401C221.177 239.011 220.444 238.279 220.009 237.935C221.406 236.698 222.711 234.866 223.444 232.989ZM232.902 232.989L234.894 233.492C234.184 235.324 232.948 237.134 231.688 238.256C231.322 237.912 230.543 237.248 230.062 236.973C231.276 235.989 232.33 234.523 232.902 232.989ZM224.726 237.134L226.032 236.011C226.788 236.63 227.749 237.546 228.23 238.118L226.833 239.355C226.398 238.76 225.459 237.798 224.726 237.134ZM234.711 237.225L236.108 236.08C236.955 236.721 238.078 237.66 238.65 238.302L237.184 239.584C236.681 238.92 235.581 237.935 234.711 237.225ZM253.307 240.271V242.79H261.116V240.271H253.307ZM253.307 236.057V238.531H261.116V236.057H253.307ZM251.337 234.202H263.2V244.645H251.337V234.202ZM251.108 247.027H263.475V248.996H251.108V247.027ZM249.413 251.721H264.253V253.691H249.413V251.721ZM242.978 234.615H250.33V236.653H242.978V234.615ZM243.207 241.233H249.963V243.248H243.207V241.233ZM242.726 249.981C244.627 249.454 247.467 248.561 250.146 247.668L250.536 249.752C248.017 250.599 245.337 251.492 243.23 252.179L242.726 249.981ZM245.681 235.416H247.765V249.569L245.681 249.935V235.416ZM256.307 235.027H258.162V243.752H258.345V252.637H256.123V243.752H256.307V235.027ZM268.055 236.882H275.039V252.042H268.055V250.118H273.07V238.782H268.055V236.882ZM266.772 236.882H268.765V253.805H266.772V236.882ZM267.94 243.134H274.055V245.034H267.94V243.134ZM270.184 233.149L272.52 233.515C272.039 235.004 271.467 236.607 271.009 237.66L269.268 237.248C269.635 236.103 270.024 234.363 270.184 233.149ZM278.2 236.767H285.093V238.76H278.2V236.767ZM284.337 236.767H286.352C286.352 236.767 286.352 237.523 286.33 237.798C286.009 248.218 285.711 251.813 284.772 252.981C284.223 253.737 283.65 253.966 282.78 254.08C281.955 254.172 280.581 254.126 279.276 254.08C279.23 253.462 278.955 252.546 278.566 251.973C280.055 252.088 281.429 252.111 281.978 252.111C282.436 252.111 282.711 252.042 282.963 251.721C283.719 250.92 284.062 247.05 284.337 237.202V236.767ZM278.497 233.126L280.581 233.607C279.711 237.019 278.291 240.431 276.734 242.607C276.345 242.263 275.452 241.645 274.948 241.37C276.505 239.378 277.765 236.24 278.497 233.126ZM277.421 242.996L279.116 242.034C280.33 243.637 281.887 245.859 282.62 247.21L280.765 248.332C280.101 246.935 278.612 244.668 277.421 242.996ZM300.345 239.195H309.688V241.21H300.345V239.195ZM288.826 238.095H300.368V239.927H288.826V238.095ZM289.559 243.111H299.681V244.897H289.559V243.111ZM290.085 246.866H299.291V248.653H290.085V246.866ZM305.589 233.24H307.673V251.882C307.673 253.073 307.398 253.668 306.665 254.011C305.91 254.355 304.765 254.424 302.933 254.424C302.841 253.874 302.497 252.935 302.177 252.363C303.482 252.408 304.673 252.408 305.062 252.385C305.429 252.385 305.589 252.271 305.589 251.882V233.24ZM300.803 243.408L302.612 242.79C303.528 244.439 304.398 246.569 304.604 247.966L302.658 248.653C302.475 247.279 301.673 245.103 300.803 243.408ZM289.032 234.821L290.36 233.927C291.184 234.798 292.078 235.966 292.467 236.767L291.047 237.752C290.681 236.927 289.833 235.691 289.032 234.821ZM290.681 240.592L292.215 239.767C292.902 240.523 293.681 241.576 293.955 242.332L292.375 243.225C292.101 242.492 291.368 241.393 290.681 240.592ZM292.169 233.195H293.91V238.737H292.169V233.195ZM293.635 243.66H295.65V251.95H293.635V243.66ZM295.352 233.195H297.093V238.737H295.352V233.195ZM288.803 251.469C291.688 251.172 296.154 250.668 300.322 250.141L300.368 252.042C296.36 252.592 292.078 253.118 289.078 253.485L288.803 251.469ZM298.833 233.973L300.551 234.935C299.681 235.966 298.719 237.065 297.963 237.798L296.658 236.996C297.345 236.195 298.33 234.866 298.833 233.973ZM296.864 239.882L298.742 240.546C298.101 241.76 297.413 243.088 296.841 243.958L295.238 243.34C295.788 242.424 296.497 240.912 296.864 239.882ZM321.07 236.034H332.108V237.935H321.07V236.034ZM320.612 240.592H332.726V242.538H320.612V240.592ZM323.2 233.172H325.101V241.622H323.2V233.172ZM328.169 233.172H330.116V241.622H328.169V233.172ZM322.055 244.141H331.444V254.378H329.452V245.95H323.978V254.424H322.055V244.141ZM323.154 247.943H330.23V249.683H323.154V247.943ZM323.154 251.721H330.07V253.485H323.154V251.721ZM313.307 238.989H319.33V240.821H313.307V238.989ZM312.024 242.973H320.062V244.828H312.024V242.973ZM312.345 246.248L313.696 245.882C314.108 247.187 314.475 248.882 314.589 249.981L313.146 250.416C313.055 249.271 312.711 247.576 312.345 246.248ZM311.749 251.767C313.788 251.401 316.971 250.782 320.062 250.164L320.177 251.882C317.383 252.546 314.383 253.21 312.184 253.714L311.749 251.767ZM318.459 245.63L320.017 246.088C319.604 247.485 319.146 249.088 318.78 250.118L317.52 249.706C317.864 248.607 318.276 246.844 318.459 245.63ZM315.322 239.767H317.085V251.996L315.322 252.317V239.767ZM315.986 233.034L317.635 233.79C316.33 236.447 314.223 239.126 312.184 240.798C312.07 240.317 311.635 239.126 311.36 238.599C313.123 237.294 314.933 235.21 315.986 233.034ZM315.413 235.76L316.261 234.179C317.978 235.141 319.788 236.492 320.841 237.5L319.902 239.263C318.872 238.187 317.039 236.744 315.413 235.76ZM183.734 276.233V278.477H192.253V276.233H183.734ZM183.734 273.095V275.317H192.253V273.095H183.734ZM182.726 272.179H193.307V279.416H182.726V272.179ZM181.719 281.408H194.635V282.393H181.719V281.408ZM187.467 281.821H188.497V291.21L187.467 290.821V281.821ZM183.826 286.126C185.039 290.156 187.627 290.821 191.062 290.821C191.497 290.821 194.726 290.821 195.413 290.821C195.253 291.073 195.07 291.553 195.047 291.828H191.017C187.101 291.828 184.49 290.981 183.116 286.447L183.826 286.126ZM188.131 285.485H193.559V286.469H188.131V285.485ZM183.299 283.721L184.33 283.836C183.894 287.637 182.681 290.385 180.574 292.24C180.413 292.057 179.955 291.714 179.726 291.553C181.856 289.882 182.933 287.248 183.299 283.721ZM174.07 283.905C175.788 283.378 178.375 282.485 180.917 281.637L181.078 282.668C178.719 283.492 176.291 284.363 174.413 285.004L174.07 283.905ZM174.345 276.187H181.146V277.24H174.345V276.187ZM177.391 271.424H178.444V290.683C178.444 291.439 178.238 291.76 177.757 291.943C177.299 292.126 176.475 292.172 175.055 292.149C175.009 291.897 174.849 291.416 174.688 291.118C175.788 291.141 176.704 291.141 176.978 291.118C177.276 291.118 177.391 291.027 177.391 290.683V271.424ZM202.975 274.332H204.074V280.767C204.074 285.027 203.456 289.218 198.211 292.263C198.051 292.011 197.662 291.645 197.41 291.439C202.448 288.576 202.975 284.66 202.975 280.744V274.332ZM211.769 271.905H212.891V292.218H211.769V271.905ZM197.639 280.744H218.021V281.821H197.639V280.744ZM207.967 271.882L208.883 272.752C206.272 274.195 202.013 275.385 198.303 276.233C198.234 275.981 198.051 275.592 197.891 275.34C201.532 274.492 205.769 273.233 207.967 271.882ZM225.238 290.408H237.902V291.347H225.238V290.408ZM222.101 277.859H240.147V281.523H239.024V278.798H223.177V281.523H222.101V277.859ZM225.147 280.492H237.353V284.798H225.147V283.859H236.276V281.431H225.147V280.492ZM225.192 286.698H238.566V292.149H237.467V287.66H225.192V286.698ZM224.482 280.492H225.582V292.218H224.482V280.492ZM229.773 276.302L230.757 276.095C231.17 276.714 231.605 277.584 231.742 278.156L230.711 278.431C230.551 277.859 230.139 276.989 229.773 276.302ZM223.498 273.187H230.826V274.149H223.498V273.187ZM232.933 273.21H241.2V274.172H232.933V273.21ZM224.139 271.24L225.147 271.515C224.253 273.668 222.788 275.752 221.368 277.149C221.185 276.966 220.773 276.599 220.521 276.416C221.986 275.111 223.337 273.21 224.139 271.24ZM233.528 271.263L234.582 271.492C233.918 273.302 232.75 275.019 231.513 276.118C231.33 275.958 230.918 275.592 230.62 275.431C231.902 274.401 232.956 272.889 233.528 271.263ZM225.238 274.79L225.971 274.263C226.727 274.95 227.689 275.935 228.17 276.531L227.391 277.126C226.91 276.508 225.971 275.5 225.238 274.79ZM235.223 274.973L235.979 274.378C236.803 275.065 237.857 276.004 238.383 276.645L237.628 277.309C237.101 276.668 236.07 275.683 235.223 274.973ZM252.838 277.996V281.523H262.273V277.996H252.838ZM252.838 273.531V277.011H262.273V273.531H252.838ZM251.807 272.523H263.349V282.531H251.807V272.523ZM251.441 285.645H263.715V286.676H251.441V285.645ZM249.586 290.408H264.494V291.439H249.586V290.408ZM243.631 273.095H250.502V274.149H243.631V273.095ZM243.883 279.737H250.227V280.79H243.883V279.737ZM243.402 288.553C245.189 288.027 247.822 287.134 250.433 286.24L250.616 287.34C248.189 288.141 245.647 289.034 243.723 289.676L243.402 288.553ZM246.677 273.508H247.754V287.775L246.677 288.05V273.508ZM257.028 273.073H258.036V282.004H258.082V290.844H256.96V282.004H257.028V273.073ZM266.811 279.004H287.101V280.034H266.811V279.004ZM268.826 274.515H282.2V275.546H268.826V274.515ZM272.376 286.515H283.483V287.477H272.376V286.515ZM272.376 290.408H283.483V291.416H272.376V290.408ZM274.987 271.401H276.086V279.531H274.987V271.401ZM284.994 272.248L285.933 272.798C281.284 278.683 274.437 283.149 267.177 285.989C267.017 285.737 266.651 285.302 266.399 285.05C273.773 282.393 280.62 277.905 284.994 272.248ZM271.78 282.782H284.17V292.126H283.048V283.79H272.88V292.218H271.78V282.782ZM308.151 271.813H309.25V290.546C309.25 291.485 308.929 291.851 308.357 292.034C307.716 292.24 306.571 292.24 304.464 292.24C304.372 291.966 304.189 291.462 304.006 291.141C305.723 291.187 307.12 291.164 307.533 291.141C307.968 291.141 308.151 291.004 308.151 290.569V271.813ZM290.563 278.363H301.029V279.462H290.563V278.363ZM303.296 274.126H304.372V286.676H303.296V274.126ZM295.304 271.515H296.403V280.676C296.403 285.118 295.807 289.378 291.25 292.332C291.067 292.126 290.678 291.76 290.38 291.576C294.777 288.737 295.304 284.706 295.304 280.676V271.515ZM289.647 283.927H301.533V284.981H289.647V283.927ZM300.365 272.683L301.418 272.958C300.685 274.607 299.678 276.531 298.853 277.813C298.647 277.676 298.189 277.401 297.914 277.286C298.807 276.027 299.723 274.24 300.365 272.683ZM290.357 273.164L291.319 272.798C292.235 274.195 293.334 276.05 293.838 277.218L292.83 277.676C292.349 276.485 291.273 274.584 290.357 273.164ZM314.178 279.805H324.781V280.744H314.178V279.805ZM318.208 276.874L318.872 276.599C319.239 277.401 319.582 278.477 319.674 279.141L318.964 279.462C318.895 278.752 318.598 277.676 318.208 276.874ZM315.552 276.233C315.506 276.05 315.369 275.592 315.277 275.363C315.529 275.317 315.735 275.111 315.941 274.79C316.216 274.447 317.086 273.073 317.544 271.767L318.346 272.134C317.75 273.531 316.972 274.836 316.239 275.66V275.706C316.239 275.706 315.552 276.004 315.552 276.233ZM315.552 276.233V275.523L316.056 275.202L318.529 274.927C318.46 275.134 318.346 275.477 318.323 275.683C316.239 276.004 315.804 276.118 315.552 276.233ZM315.575 279.073C315.529 278.889 315.391 278.408 315.277 278.202C315.598 278.156 315.895 277.882 316.262 277.424C316.674 277.011 318.025 275.271 318.849 273.622L319.628 274.011C318.598 275.752 317.407 277.401 316.239 278.523V278.546C316.239 278.546 315.575 278.821 315.575 279.073ZM315.575 279.073L315.552 278.363L316.078 278.088L319.124 277.721C319.101 277.95 319.078 278.271 319.101 278.454C316.307 278.844 315.804 278.935 315.575 279.073ZM326.567 278.912H333.323V279.897H326.567V278.912ZM330.094 279.462H331.101V292.195H330.094V279.462ZM331.88 271.469L332.819 272.202C331.17 273.073 328.697 273.851 326.544 274.401C326.498 274.149 326.315 273.828 326.178 273.599C328.216 273.027 330.598 272.202 331.88 271.469ZM326.178 273.599H327.162V280.698C327.162 284.019 326.933 288.668 325.147 291.92C324.964 291.737 324.575 291.416 324.323 291.324C326.017 288.187 326.178 283.882 326.178 280.698V273.599ZM313.605 272.317H314.636V289.515H324.048V290.477H313.605V272.317ZM323.201 276.76L323.865 276.485C324.277 277.286 324.666 278.385 324.804 279.05L324.071 279.393C323.956 278.66 323.567 277.584 323.201 276.76ZM320.223 276.164C320.178 275.958 320.04 275.5 319.926 275.271C320.201 275.225 320.384 275.019 320.613 274.698C320.888 274.355 321.758 272.981 322.216 271.676L323.017 272.042C322.422 273.439 321.62 274.744 320.911 275.569V275.615C320.911 275.615 320.223 275.912 320.223 276.164ZM320.223 276.164L320.201 275.454L320.704 275.088L323.315 274.744C323.246 274.973 323.155 275.294 323.132 275.477C320.888 275.889 320.453 276.027 320.223 276.164ZM320.246 278.981C320.223 278.798 320.086 278.363 319.972 278.134C320.292 278.065 320.59 277.813 320.979 277.355C321.369 276.943 322.765 275.202 323.613 273.553L324.391 273.989C323.338 275.683 322.124 277.332 320.933 278.431V278.477C320.933 278.477 320.246 278.752 320.246 278.981ZM320.246 278.981V278.317L320.773 277.996L324.025 277.607C324.002 277.836 324.002 278.156 324.002 278.317C321.025 278.752 320.498 278.844 320.246 278.981ZM318.048 286.721L318.712 286.447C319.124 287.248 319.468 288.302 319.582 288.989L318.872 289.309C318.781 288.576 318.46 287.523 318.048 286.721ZM315.391 285.874C315.346 285.691 315.231 285.233 315.117 285.004C315.369 284.958 315.575 284.752 315.781 284.431C316.056 284.088 316.949 282.737 317.384 281.408L318.185 281.775C317.613 283.149 316.811 284.454 316.078 285.302V285.324C316.078 285.324 315.391 285.622 315.391 285.874ZM315.391 285.874V285.164L315.895 284.866L318.369 284.569C318.3 284.798 318.208 285.118 318.162 285.302C316.078 285.622 315.643 285.76 315.391 285.874ZM315.414 288.92C315.369 288.714 315.231 288.279 315.14 288.05C315.46 288.004 315.781 287.683 316.147 287.248C316.559 286.79 317.979 284.981 318.827 283.218L319.605 283.653C318.529 285.439 317.292 287.202 316.078 288.393V288.416C316.078 288.416 315.414 288.668 315.414 288.92ZM315.414 288.92V288.233L315.941 287.935L318.964 287.569C318.941 287.798 318.941 288.118 318.941 288.302C316.147 288.668 315.666 288.782 315.414 288.92ZM322.857 286.424L323.567 286.172C323.911 287.042 324.3 288.187 324.414 288.92L323.659 289.218C323.567 288.462 323.246 287.294 322.857 286.424ZM320.086 285.782C320.04 285.599 319.903 285.141 319.788 284.912C320.04 284.866 320.269 284.66 320.475 284.34C320.727 284.019 321.598 282.622 322.033 281.317L322.834 281.683C322.262 283.057 321.483 284.363 320.773 285.21V285.233C320.773 285.233 320.086 285.531 320.086 285.782ZM320.086 285.782L320.063 285.095L320.59 284.729L323.178 284.363C323.109 284.592 323.017 284.958 322.994 285.118C320.75 285.531 320.315 285.645 320.086 285.782ZM320.109 288.828C320.086 288.645 319.949 288.187 319.834 287.958C320.155 287.912 320.475 287.592 320.865 287.111C321.3 286.653 322.72 284.752 323.59 282.943L324.369 283.355C323.292 285.233 322.033 287.065 320.796 288.302V288.324C320.796 288.324 320.109 288.576 320.109 288.828ZM320.109 288.828V288.141L320.636 287.844L323.842 287.477C323.796 287.683 323.819 288.004 323.819 288.164C320.865 288.599 320.361 288.691 320.109 288.828ZM342.281 282.553H350.182V288.989H342.281V288.004H349.128V283.538H342.281V282.553ZM341.754 282.553H342.808V290.408H341.754V282.553ZM337.38 275.775H344.113V276.668H337.38V275.775ZM347.892 275.775H354.808V276.668H347.892V275.775ZM354.258 272.454H355.38V290.5C355.38 291.393 355.128 291.805 354.487 292.011C353.823 292.195 352.563 292.195 350.594 292.195C350.548 291.897 350.342 291.37 350.182 291.05C351.808 291.095 353.273 291.073 353.708 291.05C354.143 291.05 354.258 290.912 354.258 290.477V272.454ZM337.472 272.454H344.846V280.218H337.472V279.256H343.792V273.416H337.472V272.454ZM354.808 272.454V273.393H348.281V279.256H354.808V280.218H347.227V272.454H354.808ZM336.899 272.454H337.976V292.24H336.899V272.454ZM361.315 276.324V278.431H366.491V276.324H361.315ZM361.315 273.324V275.408H366.491V273.324H361.315ZM360.285 272.408H367.544V279.37H360.285V272.408ZM358.75 281.294H369.079V282.233H358.75V281.294ZM368.918 272.637H379.292V273.553H368.918V272.637ZM363.491 281.569H364.499V289.996L363.491 289.355V281.569ZM364.018 285.05H368.712V285.989H364.018V285.05ZM373.521 272.866L374.621 273.05C374.254 274.149 373.865 275.431 373.499 276.256L372.605 276.073C372.949 275.179 373.338 273.805 373.521 272.866ZM370.957 279.553V281.637H377.186V279.553H370.957ZM370.957 282.531V284.66H377.186V282.531H370.957ZM370.957 276.576V278.637H377.186V276.576H370.957ZM369.903 275.66H378.216V285.576H369.903V275.66ZM371.827 286.126L372.812 286.401C371.804 287.683 370.132 288.989 368.689 289.79C368.529 289.63 368.14 289.218 367.911 289.057C369.376 288.324 370.911 287.248 371.827 286.126ZM360.651 283.676H361.682C361.521 286.882 360.995 290.34 359.438 292.24C359.254 292.034 358.911 291.714 358.636 291.553C360.079 289.859 360.537 286.538 360.651 283.676ZM361.292 286.126C363.125 290.134 367.132 290.683 372.56 290.683C373.315 290.683 378.583 290.683 379.636 290.66C379.453 290.912 379.224 291.37 379.178 291.668H372.56C366.628 291.668 362.598 290.958 360.56 286.469L361.292 286.126ZM375.01 286.63L375.766 286.149C377.14 286.973 378.72 288.256 379.499 289.149L378.674 289.721C377.896 288.805 376.315 287.477 375.01 286.63ZM393.197 277.767H402.518V278.821H393.197V277.767ZM381.816 276.37H393.403V277.378H381.816V276.37ZM382.594 281.225H392.67V282.21H382.594V281.225ZM383.327 285.05H392.098V286.034H383.327V285.05ZM398.945 271.515H400.022V290.615C400.022 291.485 399.747 291.828 399.197 292.011C398.602 292.218 397.594 292.24 395.693 292.218C395.602 291.966 395.419 291.485 395.258 291.164C396.747 291.21 398.029 291.21 398.396 291.187C398.785 291.164 398.945 291.05 398.945 290.637V271.515ZM394.045 281.294L395.029 280.973C396.06 282.645 397.022 284.844 397.296 286.24L396.289 286.607C395.991 285.21 395.052 282.989 394.045 281.294ZM382.274 272.569L383.052 272.111C383.945 273.073 384.93 274.424 385.342 275.34L384.541 275.866C384.128 274.95 383.167 273.553 382.274 272.569ZM383.991 278.134L384.838 277.721C385.571 278.523 386.373 279.645 386.693 280.447L385.823 280.927C385.525 280.149 384.724 278.981 383.991 278.134ZM385.571 271.424H386.533V276.828H385.571V271.424ZM387.083 281.569H388.136V289.79H387.083V281.569ZM388.709 271.424H389.693V276.828H388.709V271.424ZM381.861 290.042C384.655 289.676 389.052 289.034 393.266 288.416L393.312 289.424C389.235 290.042 384.93 290.706 382.045 291.141L381.861 290.042ZM392.258 272.088L393.197 272.592C392.441 273.737 391.48 275.019 390.701 275.866L389.968 275.431C390.701 274.538 391.709 273.05 392.258 272.088ZM390.403 277.767L391.457 278.156C390.816 279.393 390.037 280.859 389.396 281.775L388.548 281.454C389.167 280.469 389.991 278.844 390.403 277.767ZM183.849 312.63H194.429V313.66H183.849V312.63ZM183.368 317.164H195.139V318.195H183.368V317.164ZM186.139 309.424H187.146V317.737H186.139V309.424ZM191.383 309.424H192.413V317.737H191.383V309.424ZM184.81 320.37H193.673V330.126H192.62V321.355H185.841V330.195H184.81V320.37ZM185.383 324.218H193.101V325.179H185.383V324.218ZM185.383 328.111H193.055V329.073H185.383V328.111ZM175.902 315.286H181.994V316.271H175.902V315.286ZM174.688 319.271H182.704V320.279H174.688V319.271ZM175.261 321.927L176.062 321.721C176.52 323.118 176.887 324.95 177.024 326.141L176.177 326.37C176.085 325.156 175.696 323.347 175.261 321.927ZM174.459 328.34C176.452 327.927 179.589 327.195 182.658 326.508L182.726 327.424C179.887 328.134 176.864 328.866 174.734 329.37L174.459 328.34ZM181.375 321.424L182.268 321.767C181.856 323.21 181.352 324.996 180.917 326.118L180.207 325.821C180.62 324.653 181.123 322.729 181.375 321.424ZM178.398 315.767H179.337V327.973L178.398 328.111V315.767ZM178.925 309.286L179.887 309.676C178.65 312.24 176.658 314.691 174.757 316.294C174.665 316.042 174.345 315.469 174.162 315.218C175.994 313.821 177.849 311.622 178.925 309.286ZM178.352 311.187L178.879 310.385C180.459 311.485 182.131 312.905 183.207 313.981L182.589 314.874C181.581 313.775 179.864 312.286 178.352 311.187ZM199.055 313.065H205.994V327.767H199.055V326.737H204.94V314.095H199.055V313.065ZM198.391 313.065H199.444V329.668H198.391V313.065ZM198.963 319.592H205.536V320.599H198.963V319.592ZM202.055 309.332L203.223 309.607C202.788 310.935 202.238 312.515 201.78 313.523L200.864 313.248C201.299 312.195 201.803 310.477 202.055 309.332ZM209.383 313.042H216.62V314.118H209.383V313.042ZM216.207 313.042H217.284C217.284 313.042 217.284 313.546 217.284 313.729C216.894 324.355 216.551 327.859 215.635 328.912C215.2 329.462 214.765 329.622 214.009 329.668C213.299 329.714 211.971 329.668 210.711 329.599C210.665 329.256 210.551 328.798 210.345 328.523C211.856 328.637 213.23 328.66 213.734 328.66C214.192 328.66 214.467 328.615 214.696 328.294C215.475 327.469 215.864 323.737 216.207 313.317V313.042ZM210.093 309.24L211.169 309.492C210.368 312.905 209.085 316.202 207.505 318.378C207.299 318.218 206.841 317.92 206.566 317.76C208.146 315.676 209.36 312.492 210.093 309.24ZM209.085 318.607L209.933 318.103C211.33 319.752 212.955 321.996 213.734 323.347L212.772 323.966C212.039 322.569 210.436 320.279 209.085 318.607ZM228.391 317.485H229.467V328.752C229.467 329.439 229.307 329.782 228.78 329.966C228.253 330.126 227.268 330.126 225.803 330.126C225.734 329.851 225.574 329.439 225.413 329.141C226.65 329.187 227.658 329.164 228.001 329.141C228.322 329.141 228.391 329.05 228.391 328.752V317.485ZM222.391 317.485H228.917V318.492H222.391V317.485ZM231.803 320.027H232.879V328.088C232.879 328.798 233.131 328.981 234.345 328.981C234.894 328.981 238.009 328.981 238.788 328.981C239.864 328.981 240.024 328.523 240.116 325.844C240.391 326.027 240.849 326.21 241.146 326.279C240.986 329.233 240.62 329.989 238.856 329.989C238.398 329.989 234.734 329.989 234.299 329.989C232.352 329.989 231.803 329.622 231.803 328.088V320.027ZM226.971 311.439L227.864 311.027C229.101 312.584 230.452 314.691 231.047 316.042L230.108 316.523C229.536 315.172 228.207 313.019 226.971 311.439ZM232.352 312.836H239.429V313.866H232.352V312.836ZM232.375 323.027H239.726V324.103H232.375V323.027ZM221.589 315.653C221.52 315.424 221.337 314.828 221.223 314.553C221.566 314.485 221.933 314.164 222.391 313.66C222.849 313.156 224.452 311.256 225.459 309.378L226.581 309.813C225.322 311.782 223.833 313.706 222.436 314.989V315.034C222.436 315.034 221.589 315.378 221.589 315.653ZM221.589 315.653L221.566 314.782L222.299 314.37L229.536 313.912C229.559 314.21 229.65 314.622 229.742 314.851C222.803 315.401 222.047 315.469 221.589 315.653ZM221.864 317.485H222.894V323.416C222.894 325.546 222.665 328.294 221.108 330.218C220.971 329.989 220.581 329.576 220.352 329.416C221.704 327.698 221.864 325.34 221.864 323.416V317.485ZM222.849 326.21C224.36 325.546 226.581 324.447 228.734 323.37L228.986 324.195C227.017 325.248 225.001 326.347 223.375 327.172L222.849 326.21ZM223.352 320.851L223.948 320.21C225.368 320.943 227.177 321.996 228.116 322.66L227.52 323.393C226.581 322.683 224.795 321.584 223.352 320.851ZM231.803 309.378H232.879V317.095C232.879 317.92 233.108 318.195 233.887 318.195C234.574 318.195 237.917 318.195 238.627 318.195C239.131 318.195 240.001 318.172 240.391 318.103C240.436 318.401 240.482 318.836 240.551 319.088C240.207 319.156 239.452 319.179 238.673 319.179C237.94 319.179 234.299 319.179 233.887 319.179C232.284 319.179 231.803 318.653 231.803 317.073V309.378ZM244.009 314.553H261.917V315.676H244.009V314.553ZM261.528 314.553H262.673C262.673 314.553 262.65 315.034 262.627 315.218C262.055 324.882 261.597 328.271 260.589 329.37C260.085 329.92 259.627 330.034 258.826 330.08C258.093 330.126 256.581 330.08 255.162 329.989C255.139 329.668 255.024 329.187 254.795 328.866C256.421 329.027 257.955 329.027 258.505 329.027C259.009 329.027 259.307 328.981 259.581 328.706C260.475 327.836 261.024 324.286 261.528 314.805V314.553ZM251.772 309.447H252.917V312.973C252.917 318.218 252.345 325.179 244.215 330.286C244.032 330.011 243.642 329.645 243.391 329.439C251.291 324.515 251.772 317.92 251.772 312.973V309.447Z" fill="black"/>
<path d="M486.314 281C486.314 280.782 486.403 280.572 486.561 280.418C486.719 280.264 486.934 280.178 487.157 280.178L505.041 280.178L498.083 273.502C498.004 273.427 497.941 273.337 497.898 273.237C497.854 273.138 497.832 273.031 497.831 272.923C497.83 272.815 497.851 272.708 497.892 272.608C497.934 272.508 497.995 272.417 498.072 272.34C498.15 272.263 498.243 272.201 498.344 272.159C498.446 272.117 498.556 272.095 498.666 272.094C498.89 272.092 499.105 272.177 499.265 272.33L507.69 280.412C507.693 280.416 507.697 280.419 507.701 280.423C507.78 280.501 507.842 280.594 507.883 280.696C507.925 280.797 507.945 280.906 507.943 281.016C507.941 281.125 507.916 281.233 507.87 281.333C507.825 281.433 507.759 281.524 507.677 281.599L499.265 289.669C499.186 289.745 499.092 289.805 498.99 289.845C498.887 289.886 498.777 289.906 498.667 289.905C498.556 289.905 498.447 289.882 498.345 289.84C498.243 289.798 498.15 289.737 498.073 289.66C497.995 289.583 497.934 289.492 497.892 289.392C497.851 289.292 497.83 289.184 497.831 289.077C497.832 288.969 497.854 288.862 497.898 288.762C497.941 288.663 498.004 288.573 498.083 288.497L505.041 281.822L487.157 281.822C486.934 281.822 486.719 281.735 486.561 281.581C486.403 281.427 486.314 281.218 486.314 281Z" fill="#FF6A3C"/>
<circle opacity="0.6" cx="684.151" cy="281" r="93.5115" fill="#FF6A3C"/>
<path d="M679.982 271.3H683.01V290.995C683.01 292.776 682.629 293.616 681.611 294.125C680.542 294.608 678.837 294.71 676.496 294.71C676.369 293.845 675.886 292.42 675.428 291.555C677.107 291.631 678.761 291.606 679.295 291.606C679.779 291.606 679.982 291.453 679.982 290.97V271.3ZM661.255 278.196H673.112V281.097H661.255V278.196ZM674.842 273.87H677.794V288.272H674.842V273.87ZM665.911 270.893H668.99V281.25C668.99 286.237 668.227 291.758 663.214 294.863C662.73 294.227 661.611 293.132 660.924 292.624C665.377 289.926 665.911 285.194 665.911 281.25V270.893ZM660.44 284.303H673.901V287.127H660.44V284.303ZM671.407 272.089L674.155 272.878C673.417 274.71 672.323 276.924 671.56 278.349C670.924 277.916 669.702 277.382 668.99 277.127C669.83 275.804 670.796 273.769 671.407 272.089ZM660.975 273.107L663.494 272.166C664.359 273.667 665.326 275.601 665.809 276.898L663.163 278.018C662.756 276.72 661.789 274.659 660.975 273.107ZM687.641 279.672H699.804V281.86H687.641V279.672ZM692.171 276.797L693.366 276.313C693.748 277.178 694.079 278.323 694.206 279.061L692.908 279.596C692.832 278.832 692.527 277.662 692.171 276.797ZM689.397 276.237C689.321 275.881 689.041 275.066 688.837 274.608C689.143 274.557 689.372 274.328 689.626 273.998C689.906 273.641 690.746 272.293 691.178 270.919L692.807 271.606C692.196 273.005 691.254 274.405 690.466 275.295V275.346C690.466 275.346 689.397 275.881 689.397 276.237ZM689.397 276.262L689.346 274.888L690.135 274.379L692.985 274.049C692.908 274.481 692.858 275.143 692.858 275.524C690.313 275.906 689.728 276.084 689.397 276.262ZM689.473 279.341C689.397 278.985 689.143 278.145 688.939 277.713C689.295 277.636 689.677 277.331 690.109 276.848C690.542 276.389 691.992 274.583 692.908 272.751L694.384 273.718C693.265 275.473 691.84 277.204 690.44 278.425V278.451C690.44 278.451 689.473 278.985 689.473 279.341ZM689.473 279.341L689.448 278.094L690.211 277.611L693.468 277.255C693.392 277.687 693.366 278.298 693.366 278.629C690.44 279.01 689.83 279.163 689.473 279.341ZM701.254 278.781H709.473V281.224H701.254V278.781ZM705.046 280.384H707.616V294.659H705.046V280.384ZM706.522 270.817L708.786 272.751C706.649 273.82 703.799 274.685 701.356 275.27C701.229 274.71 700.822 273.794 700.491 273.26C702.679 272.649 705.097 271.682 706.522 270.817ZM700.491 273.26H702.959V281.987C702.959 285.728 702.679 291.046 700.898 294.43C700.466 293.998 699.397 293.234 698.786 292.98C700.364 289.876 700.491 285.372 700.491 281.987V273.26ZM686.242 271.555H688.812V290.715H698.685V293.056H686.242V271.555ZM697.667 276.619L698.964 276.16C699.372 277.051 699.753 278.247 699.88 279.01L698.481 279.545C698.379 278.73 698.023 277.509 697.667 276.619ZM694.664 276.135C694.588 275.779 694.308 274.965 694.104 274.507C694.41 274.456 694.639 274.227 694.893 273.896C695.173 273.54 696.013 272.191 696.445 270.817L698.074 271.504C697.463 272.903 696.522 274.303 695.733 275.194V275.244C695.733 275.244 694.664 275.779 694.664 276.135ZM694.664 276.16L694.613 274.837L695.377 274.303L698.074 273.998C697.998 274.43 697.947 275.066 697.947 275.423C695.555 275.804 694.97 275.982 694.664 276.16ZM694.664 279.29C694.588 278.934 694.308 278.069 694.104 277.636C694.511 277.56 694.868 277.28 695.3 276.822C695.758 276.364 697.285 274.608 698.252 272.853L699.702 273.82C698.532 275.499 697.056 277.204 695.631 278.374V278.425C695.631 278.425 694.664 278.934 694.664 279.29ZM694.664 279.29L694.613 278.018L695.402 277.535L698.888 277.153C698.837 277.585 698.786 278.171 698.786 278.501C695.631 278.959 694.995 279.112 694.664 279.29ZM692.221 287.891L693.417 287.433C693.799 288.298 694.155 289.443 694.282 290.181L692.985 290.69C692.908 289.952 692.578 288.756 692.221 287.891ZM689.448 287.306C689.372 286.949 689.092 286.11 688.888 285.677C689.193 285.626 689.422 285.397 689.677 285.041C689.957 284.685 690.796 283.336 691.229 281.962L692.858 282.674C692.247 284.049 691.305 285.448 690.517 286.339V286.389C690.517 286.389 689.448 286.924 689.448 287.306ZM689.448 287.306L689.397 285.931L690.186 285.423L693.036 285.092C692.959 285.524 692.908 286.186 692.908 286.568C690.364 286.949 689.779 287.127 689.448 287.306ZM689.524 290.461C689.448 290.105 689.193 289.265 688.99 288.807C689.346 288.73 689.728 288.425 690.16 287.967C690.593 287.484 692.094 285.652 692.985 283.794L694.461 284.761C693.366 286.542 691.891 288.298 690.491 289.519V289.57C690.491 289.57 689.524 290.105 689.524 290.461ZM689.524 290.461L689.499 289.214L690.262 288.705L693.519 288.374C693.443 288.781 693.417 289.392 693.417 289.723C690.491 290.13 689.88 290.283 689.524 290.461ZM697.31 287.662L698.634 287.204C699.041 288.12 699.397 289.341 699.524 290.13L698.099 290.639C698.023 289.825 697.692 288.603 697.31 287.662ZM694.715 287.204C694.639 286.848 694.359 286.008 694.155 285.575C694.435 285.524 694.69 285.295 694.919 284.939C695.148 284.583 695.936 283.209 696.293 281.86L697.921 282.573C697.361 283.947 696.522 285.346 695.784 286.237V286.288C695.784 286.288 694.715 286.822 694.715 287.204ZM694.715 287.204L694.664 285.906L695.428 285.372L698.15 285.066C698.074 285.473 697.998 286.135 697.998 286.466C695.606 286.848 695.046 287.051 694.715 287.204ZM694.715 290.384C694.639 290.028 694.359 289.188 694.155 288.756C694.537 288.68 694.919 288.374 695.326 287.891C695.784 287.458 697.209 285.626 698.099 283.82L699.601 284.786C698.481 286.517 697.056 288.247 695.682 289.468V289.519C695.682 289.519 694.715 290.028 694.715 290.384ZM694.715 290.384L694.664 289.138L695.428 288.654L698.659 288.323C698.557 288.73 698.532 289.316 698.557 289.646C695.657 290.054 695.02 290.206 694.715 290.384Z" fill="white"/>
<rect x="173.973" y="401.229" width="137.405" height="19.084" fill="#FFF0E2"/>
<path d="M174.459 391.309H185.039V392.797H174.459V391.309ZM185.223 393.118H192.322V394.95H185.223V393.118ZM175.215 398.225H182.978V399.599H175.215V398.225ZM177.62 394.859V396.187H182.131V394.859H177.62ZM175.833 393.622H184.032V397.4H175.833V393.622ZM182.406 398.225H182.841L183.207 398.133L184.307 399.072C183.07 399.942 181.352 400.744 179.841 401.248C179.635 400.95 179.2 400.469 178.948 400.263C180.184 399.828 181.65 399.118 182.406 398.546V398.225ZM178.948 400.24H180.917V404.019C180.917 404.912 180.734 405.278 180.07 405.53C179.429 405.759 178.467 405.759 177.07 405.759C176.978 405.278 176.704 404.683 176.475 404.248C177.459 404.294 178.307 404.294 178.604 404.271C178.879 404.248 178.948 404.202 178.948 403.95V400.24ZM174.436 401.568C177.024 401.454 180.94 401.248 184.742 401.019L184.719 402.484C181.078 402.736 177.253 402.965 174.574 403.126L174.436 401.568ZM191.2 393.118H193.192C193.146 400.08 193.078 403.744 193.994 403.744C194.291 403.744 194.383 402.393 194.406 400.79C194.749 401.202 195.276 401.752 195.665 402.049C195.505 404.66 195.139 405.622 193.833 405.622C191.154 405.622 191.223 401.477 191.2 393.118ZM184.627 398.133L185.658 396.668C187.604 397.904 190.078 399.736 191.177 401.065L190.078 402.759C188.978 401.385 186.597 399.439 184.627 398.133ZM181.009 406.767L183.024 406.561C183.322 407.843 183.551 409.469 183.574 410.454L181.421 410.729C181.421 409.721 181.261 408.049 181.009 406.767ZM185.749 406.721L187.788 406.378C188.36 407.614 188.91 409.263 189.093 410.271L186.94 410.706C186.78 409.675 186.276 408.004 185.749 406.721ZM190.467 406.607L192.482 406.08C193.375 407.339 194.406 409.08 194.841 410.225L192.711 410.843C192.322 409.721 191.337 407.935 190.467 406.607ZM177.093 406.08L179.131 406.584C178.581 408.072 177.643 409.767 176.635 410.82L174.62 410.019C175.581 409.126 176.543 407.546 177.093 406.08ZM187.467 389.66H189.368V395.019C189.368 398.82 188.726 402.851 184.559 405.92C184.238 405.507 183.62 404.958 183.162 404.614C186.963 401.775 187.467 398.156 187.467 395.019V389.66ZM178.398 389.958L180.345 389.477C180.757 390.095 181.192 390.942 181.375 391.515L179.337 392.088C179.177 391.515 178.788 390.622 178.398 389.958ZM203.039 403.904H205.192V407.797C205.192 408.462 205.398 408.553 206.589 408.553C207.116 408.553 209.704 408.553 210.413 408.553C211.398 408.553 211.559 408.255 211.673 406.126C212.108 406.469 213.024 406.79 213.62 406.904C213.345 409.79 212.726 410.5 210.597 410.5C210.024 410.5 206.91 410.5 206.36 410.5C203.704 410.5 203.039 409.904 203.039 407.82V403.904ZM206.2 403.721L207.734 402.668C208.627 403.538 209.818 404.797 210.391 405.576L208.788 406.79C208.215 405.988 207.07 404.66 206.2 403.721ZM213.07 404.637L214.948 403.79C215.933 405.21 217.307 407.179 217.971 408.347L215.978 409.378C215.383 408.164 214.055 406.126 213.07 404.637ZM200.864 393.507L202.604 392.729C203.337 393.599 204.139 394.813 204.413 395.637L202.581 396.484C202.307 395.66 201.574 394.423 200.864 393.507ZM200.017 403.973L201.894 404.752C201.253 406.492 200.291 408.553 199.078 409.904L197.177 408.759C198.391 407.546 199.421 405.622 200.017 403.973ZM197.566 395.843H217.856V397.836H197.566V395.843ZM206.589 391.744H208.719V402.484H206.589V391.744ZM205.421 396.576L207.162 397.309C205.169 399.988 201.688 402.324 198.413 403.492C198.093 402.965 197.452 402.141 196.971 401.752C200.2 400.79 203.635 398.797 205.421 396.576ZM214.215 389.706L216.093 391.24C211.559 392.294 204.826 392.797 199.101 392.958C199.055 392.454 198.803 391.652 198.597 391.24C204.162 391.057 210.711 390.53 214.215 389.706ZM212.589 392.477L214.765 393.164C213.94 394.355 213.001 395.614 212.246 396.439L210.643 395.797C211.307 394.881 212.131 393.462 212.589 392.477ZM207.62 398.271L208.971 396.965C212.108 398.271 215.841 400.492 217.879 402.049L216.528 403.515C214.536 401.889 210.78 399.622 207.62 398.271ZM225.459 408.599H237.139V410.248H225.459V408.599ZM221.177 396.072H240.253V399.965H238.055V397.744H223.261V399.965H221.177V396.072ZM225.345 398.958H237.413V403.79H225.345V402.21H235.307V400.561H225.345V398.958ZM225.459 405.141H238.627V410.912H236.475V406.79H225.459V405.141ZM223.788 398.958H225.986V410.958H223.788V398.958ZM229.032 394.698L230.955 394.309C231.391 394.95 231.872 395.889 232.032 396.507L229.994 396.965C229.833 396.37 229.421 395.408 229.032 394.698ZM223.146 391.194H230.383V392.889H223.146V391.194ZM232.604 391.217H241.078V392.889H232.604V391.217ZM223.444 389.477L225.368 390.026C224.475 392.225 222.94 394.446 221.497 395.889C221.177 395.5 220.444 394.767 220.009 394.423C221.406 393.187 222.711 391.355 223.444 389.477ZM232.902 389.477L234.894 389.981C234.184 391.813 232.948 393.622 231.688 394.744C231.322 394.4 230.543 393.736 230.062 393.462C231.276 392.477 232.33 391.011 232.902 389.477ZM224.726 393.622L226.032 392.5C226.788 393.118 227.749 394.034 228.23 394.607L226.833 395.843C226.398 395.248 225.459 394.286 224.726 393.622ZM234.711 393.713L236.108 392.568C236.955 393.21 238.078 394.149 238.65 394.79L237.184 396.072C236.681 395.408 235.581 394.423 234.711 393.713ZM253.307 396.759V399.278H261.116V396.759H253.307ZM253.307 392.546V395.019H261.116V392.546H253.307ZM251.337 390.691H263.2V401.133H251.337V390.691ZM251.108 403.515H263.475V405.484H251.108V403.515ZM249.413 408.21H264.253V410.179H249.413V408.21ZM242.978 391.103H250.33V393.141H242.978V391.103ZM243.207 397.721H249.963V399.736H243.207V397.721ZM242.726 406.469C244.627 405.942 247.467 405.049 250.146 404.156L250.536 406.24C248.017 407.088 245.337 407.981 243.23 408.668L242.726 406.469ZM245.681 391.904H247.765V406.057L245.681 406.423V391.904ZM256.307 391.515H258.162V400.24H258.345V409.126H256.123V400.24H256.307V391.515ZM266.337 393.507H286.49V395.614H266.337V393.507ZM273.665 398.889H282.665V400.996H273.665V398.889ZM282.093 398.889H284.337C284.337 398.889 284.314 399.576 284.268 399.874C283.833 406.263 283.375 408.805 282.436 409.744C281.841 410.408 281.2 410.591 280.238 410.66C279.391 410.729 277.879 410.729 276.345 410.637C276.299 409.996 275.978 409.08 275.566 408.507C277.192 408.645 278.795 408.668 279.436 408.668C279.94 408.668 280.238 408.622 280.536 408.393C281.246 407.752 281.726 405.187 282.093 399.255V398.889ZM272.429 394.813H274.833C274.513 400.79 273.917 407.477 267.459 411.004C267.139 410.431 266.452 409.675 265.879 409.24C271.925 406.149 272.177 400.103 272.429 394.813ZM274.765 390.255L276.872 389.454C277.513 390.507 278.2 391.904 278.543 392.82L276.345 393.759C276.047 392.843 275.337 391.355 274.765 390.255ZM304.123 390.965L305.566 389.752C306.688 390.507 308.085 391.652 308.772 392.431L307.238 393.759C306.597 392.958 305.246 391.767 304.123 390.965ZM289.055 393.782H309.551V395.889H289.055V393.782ZM289.879 398.958H299.91V401.065H289.879V398.958ZM293.726 400.126H295.879V408.118H293.726V400.126ZM289.101 408.095C291.849 407.614 296.337 406.744 300.528 405.897L300.688 407.843C296.841 408.713 292.696 409.63 289.742 410.271L289.101 408.095ZM300.551 389.752H302.864C302.726 399.851 304.65 408.691 307.192 408.691C307.765 408.691 308.039 407.431 308.177 404.431C308.658 404.935 309.482 405.439 310.078 405.668C309.734 409.836 308.955 410.958 307.009 410.958C302.268 410.958 300.597 400.652 300.551 389.752ZM180.597 432.194H194.795V433.156H180.597V432.194ZM182.681 437.92H190.284V438.836H182.681V437.92ZM189.78 440.21H193.261V441.126H189.78V440.21ZM187.146 429.607H188.2V437.278H187.146V429.607ZM186.734 432.561L187.581 432.927C186.07 435.034 183.253 437.095 180.849 438.08C180.688 437.828 180.368 437.462 180.116 437.255C182.52 436.385 185.314 434.484 186.734 432.561ZM192.94 440.21H193.994C193.994 440.21 193.971 440.507 193.948 440.713C193.65 443.484 193.375 444.607 192.872 445.042C192.551 445.339 192.184 445.431 191.612 445.454C191.085 445.477 189.963 445.454 188.818 445.385C188.795 445.11 188.704 444.721 188.543 444.446C189.734 444.561 190.879 444.584 191.246 444.584C191.681 444.584 191.887 444.561 192.024 444.4C192.413 444.057 192.665 443.004 192.94 440.37V440.21ZM192.94 428.324L193.742 429.126C190.673 429.813 185.589 430.248 181.398 430.431C181.375 430.156 181.238 429.79 181.123 429.561C185.246 429.355 190.307 428.942 192.94 428.324ZM185.383 438.171H186.459C186.047 441.63 184.971 444.24 181.49 445.66C181.375 445.408 181.032 444.996 180.826 444.813C184.078 443.622 185.062 441.194 185.383 438.171ZM189.94 437.92H190.948C190.696 439.019 190.375 440.278 190.101 441.126H189.07C189.391 440.21 189.711 438.95 189.94 437.92ZM175.467 428.37L176.314 427.912C177.299 429.057 178.444 430.546 178.994 431.507L178.101 432.057C177.551 431.095 176.383 429.515 175.467 428.37ZM174.436 433.156H179.475V434.141H174.436V433.156ZM178.192 443.965C179.726 446.92 182.864 447.355 187.719 447.355C190.101 447.355 193.215 447.286 195.413 447.08C195.23 447.355 195.116 447.881 195.047 448.179C193.032 448.294 190.146 448.339 187.719 448.339C182.314 448.339 179.2 447.79 177.459 444.378L178.192 443.965ZM178.742 438.95H179.039L179.246 438.927L179.818 439.133C179.039 443.851 177.253 446.988 174.917 448.706C174.757 448.477 174.368 448.088 174.139 447.904C176.406 446.324 178.101 443.393 178.742 439.179V438.95ZM174.734 440.21V439.294L175.444 438.95H179.223V439.912H176.039C175.444 439.912 174.894 440.049 174.734 440.21ZM174.734 440.21C174.643 439.912 174.368 439.339 174.23 439.065C174.551 438.973 174.917 438.836 175.284 438.423C175.994 437.691 178.261 434.462 178.994 433.271V433.225L179.383 433.042L180.207 433.431C179.131 434.965 177.001 437.942 175.696 439.408C175.696 439.408 174.734 439.889 174.734 440.21ZM188.635 433.981L189.276 433.317C191.429 434.553 193.719 436.088 195.139 437.301L194.36 438.011C193.009 436.797 190.788 435.263 188.635 433.981ZM204.303 435.881H216.738V436.82H205.333V445.797H204.303V435.881ZM206.112 428.759H215.295V436.431H214.265V429.698H207.143V436.431H206.112V428.759ZM208.288 438.607H213.669V443.347H208.288V442.454H212.708V439.5H208.288V438.607ZM216.097 435.881H217.15V444.446C217.15 445.088 217.013 445.408 216.509 445.568C216.051 445.752 215.158 445.752 213.738 445.752C213.692 445.477 213.532 445.065 213.372 444.79C214.517 444.813 215.456 444.813 215.73 444.813C216.005 444.79 216.097 444.721 216.097 444.469V435.881ZM207.761 438.607H208.677V444.378H207.761V438.607ZM209.937 431.851H214.814V432.744H210.875V436.385H209.937V431.851ZM198.509 428.37L199.356 427.912C200.341 429.057 201.486 430.546 202.036 431.507L201.143 432.057C200.593 431.095 199.425 429.515 198.509 428.37ZM197.479 433.156H202.517V434.141H197.479V433.156ZM201.234 443.965C202.769 446.92 205.906 447.355 210.761 447.355C213.143 447.355 216.257 447.286 218.456 447.08C218.272 447.355 218.158 447.881 218.089 448.179C216.074 448.294 213.188 448.339 210.761 448.339C205.356 448.339 202.242 447.79 200.501 444.378L201.234 443.965ZM201.784 438.95H202.082L202.288 438.927L202.86 439.133C202.082 443.851 200.295 446.988 197.959 448.706C197.799 448.477 197.41 448.088 197.181 447.904C199.448 446.324 201.143 443.393 201.784 439.179V438.95ZM197.776 440.21V439.294L198.486 438.95H202.265V439.912H199.082C198.486 439.912 197.937 440.049 197.776 440.21ZM197.776 440.21C197.685 439.912 197.41 439.339 197.272 439.065C197.593 438.973 197.959 438.836 198.326 438.423C199.036 437.691 201.303 434.462 202.036 433.271V433.225L202.425 433.042L203.25 433.431C202.173 434.965 200.043 437.942 198.738 439.408C198.738 439.408 197.776 439.889 197.776 440.21ZM228.765 430.454H241.086V431.484H228.765V430.454ZM234.376 440.37H235.429V448.706H234.376V440.37ZM233.918 440.141L234.742 440.622C233.643 443.21 231.399 446.049 229.2 447.492C229.04 447.24 228.742 446.874 228.49 446.645C230.62 445.362 232.864 442.66 233.918 440.141ZM235.91 440.255C237.124 442.568 239.437 445.202 241.315 446.439C241.04 446.645 240.719 447.011 240.513 447.286C238.681 445.843 236.368 443.026 235.108 440.599L235.91 440.255ZM230.437 434.691V439.866H239.322V434.691H230.437ZM229.475 433.729H240.33V440.828H229.475V433.729ZM231.513 435.721L232.246 435.515C232.818 436.546 233.368 437.92 233.551 438.813L232.75 439.065C232.589 438.171 232.063 436.752 231.513 435.721ZM237.948 435.378L238.818 435.698C238.315 436.866 237.719 438.286 237.192 439.179L236.528 438.904C237.009 437.965 237.65 436.408 237.948 435.378ZM234.376 427.912H235.452V434.049H235.406V440.53H234.421V434.049H234.376V427.912ZM226.223 436.706L227.139 436.5C227.734 438.126 228.33 440.187 228.513 441.4L227.574 441.698C227.368 440.439 226.818 438.309 226.223 436.706ZM223.887 442.431L224.803 442.294C225.101 443.965 225.376 446.095 225.467 447.492L224.528 447.675C224.46 446.255 224.208 444.126 223.887 442.431ZM221.528 442.408L222.536 442.568C222.192 444.607 221.711 446.897 221.231 448.385C221.047 448.271 220.566 448.11 220.292 448.019C220.864 446.507 221.253 444.355 221.528 442.408ZM220.773 436.156C220.704 435.904 220.521 435.355 220.406 435.057C220.75 434.988 221.185 434.507 221.666 433.797C222.192 433.088 223.91 430.408 224.94 427.866L225.994 428.324C224.734 430.958 223.131 433.637 221.574 435.492V435.515C221.574 435.515 220.773 435.881 220.773 436.156ZM220.773 436.156L220.75 435.263L221.391 434.897L225.49 434.507C225.444 434.805 225.421 435.194 225.444 435.446C221.666 435.904 221.093 435.996 220.773 436.156ZM220.91 441.24C220.841 440.988 220.658 440.439 220.544 440.141C220.956 440.072 221.482 439.454 222.17 438.607C222.902 437.782 225.307 434.53 226.841 431.484L227.872 432.011C226.04 435.171 223.864 438.355 221.711 440.576V440.622C221.711 440.622 220.91 440.965 220.91 441.24ZM220.91 441.24L220.887 440.347L221.528 439.912L227.689 439.088C227.643 439.385 227.666 439.797 227.689 440.004C221.963 440.874 221.322 441.034 220.91 441.24ZM226.086 442.019L226.933 441.813C227.437 443.164 227.986 444.95 228.192 446.095L227.322 446.37C227.093 445.202 226.589 443.393 226.086 442.019ZM246.883 439.317H261.082V448.775H259.96V440.278H248.006V448.775H246.883V439.317ZM247.502 443.026H260.395V443.988H247.502V443.026ZM247.525 446.874H260.326V447.836H247.525V446.874ZM253.296 437.141L254.418 437.439C253.96 438.378 253.41 439.317 252.975 439.981L252.082 439.683C252.494 438.973 253.044 437.828 253.296 437.141ZM244.25 429.149H252.036V430.11H244.25V429.149ZM251.67 429.149H252.7V436.729C252.7 437.324 252.563 437.622 252.082 437.805C251.578 437.965 250.708 437.942 249.219 437.942C249.173 437.691 249.013 437.324 248.876 437.072C250.044 437.095 250.983 437.095 251.28 437.072C251.601 437.072 251.67 436.981 251.67 436.729V429.149ZM254.303 429.149H262.341V430.11H254.303V429.149ZM261.838 429.149H262.891V436.797C262.891 437.393 262.754 437.691 262.25 437.874C261.746 438.057 260.83 438.057 259.296 438.057C259.273 437.782 259.089 437.393 258.929 437.095C260.143 437.141 261.151 437.141 261.448 437.141C261.769 437.118 261.838 437.049 261.838 436.797V429.149ZM253.845 435.927C255.54 435.378 258.013 434.484 260.441 433.614L260.624 434.484C258.425 435.309 256.112 436.202 254.326 436.82L253.845 435.927ZM255.082 431.301L255.7 430.614C256.845 431.164 258.173 432.08 258.838 432.79L258.151 433.568C257.532 432.836 256.227 431.874 255.082 431.301ZM243.746 436.431C245.349 435.881 247.685 434.965 250.021 434.072L250.204 434.942C248.097 435.79 245.922 436.683 244.227 437.37L243.746 436.431ZM245.441 431.255L246.105 430.591C247.25 431.21 248.555 432.149 249.173 432.881L248.509 433.614C247.868 432.904 246.563 431.897 245.441 431.255ZM268.322 431.553H275.261V446.255H268.322V445.225H274.208V432.584H268.322V431.553ZM267.658 431.553H268.712V448.156H267.658V431.553ZM268.231 438.08H274.803V439.088H268.231V438.08ZM271.322 427.82L272.49 428.095C272.055 429.423 271.506 431.004 271.048 432.011L270.132 431.736C270.567 430.683 271.071 428.965 271.322 427.82ZM278.651 431.53H285.887V432.607H278.651V431.53ZM285.475 431.53H286.551C286.551 431.53 286.551 432.034 286.551 432.217C286.162 442.843 285.819 446.347 284.903 447.4C284.467 447.95 284.032 448.11 283.277 448.156C282.567 448.202 281.238 448.156 279.979 448.088C279.933 447.744 279.819 447.286 279.613 447.011C281.124 447.126 282.498 447.149 283.002 447.149C283.46 447.149 283.735 447.103 283.964 446.782C284.742 445.958 285.132 442.225 285.475 431.805V431.53ZM279.361 427.729L280.437 427.981C279.635 431.393 278.353 434.691 276.773 436.866C276.567 436.706 276.109 436.408 275.834 436.248C277.414 434.164 278.628 430.981 279.361 427.729ZM278.353 437.095L279.2 436.591C280.597 438.24 282.223 440.484 283.002 441.836L282.04 442.454C281.307 441.057 279.704 438.767 278.353 437.095ZM290.311 432.034H309.777V433.088H290.311V432.034ZM297.227 437.301H306.616V438.378H297.227V437.301ZM306.273 437.301H307.441C307.441 437.301 307.418 437.713 307.372 437.92C306.891 444.538 306.433 446.988 305.563 447.859C305.128 448.317 304.67 448.431 303.891 448.477C303.113 448.5 301.624 448.477 300.067 448.339C300.044 448.019 299.907 447.561 299.678 447.263C301.372 447.423 302.975 447.446 303.571 447.446C304.075 447.446 304.372 447.4 304.624 447.194C305.357 446.507 305.838 443.988 306.273 437.507V437.301ZM296.838 432.584H298.029C297.731 438.561 297.044 445.477 290.563 448.729C290.403 448.477 290.013 448.088 289.739 447.881C296.036 444.859 296.586 438.171 296.838 432.584ZM298.945 428.255L299.975 427.843C300.616 428.942 301.326 430.362 301.647 431.301L300.548 431.782C300.25 430.843 299.54 429.378 298.945 428.255ZM327.758 428.782L328.514 428.141C329.796 428.988 331.307 430.225 332.04 431.049L331.262 431.805C330.529 430.958 329.04 429.652 327.758 428.782ZM312.895 432.4H333.185V433.477H312.895V432.4ZM313.651 437.37H323.888V438.446H313.651V437.37ZM318.162 437.897H319.262V446.301H318.162V437.897ZM313.056 446.92C315.758 446.324 320.246 445.317 324.552 444.309L324.643 445.317C320.659 446.301 316.376 447.332 313.445 447.996L313.056 446.92ZM324.804 428.004H325.994C325.994 439.339 328.239 447.607 331.445 447.607C332.155 447.607 332.43 446.347 332.59 443.164C332.842 443.393 333.277 443.622 333.598 443.736C333.369 447.538 332.865 448.752 331.353 448.752C327.025 448.752 324.918 439.385 324.804 428.004ZM347.113 434.255H356.434V435.309H347.113V434.255ZM335.731 432.859H347.319V433.866H335.731V432.859ZM336.51 437.713H346.586V438.698H336.51V437.713ZM337.243 441.538H346.014V442.523H337.243V441.538ZM352.861 428.004H353.937V447.103C353.937 447.973 353.663 448.317 353.113 448.5C352.518 448.706 351.51 448.729 349.609 448.706C349.518 448.454 349.334 447.973 349.174 447.652C350.663 447.698 351.945 447.698 352.311 447.675C352.701 447.652 352.861 447.538 352.861 447.126V428.004ZM347.96 437.782L348.945 437.462C349.976 439.133 350.937 441.332 351.212 442.729L350.205 443.095C349.907 441.698 348.968 439.477 347.96 437.782ZM336.189 429.057L336.968 428.599C337.861 429.561 338.846 430.912 339.258 431.828L338.456 432.355C338.044 431.439 337.082 430.042 336.189 429.057ZM337.907 434.622L338.754 434.21C339.487 435.011 340.289 436.133 340.609 436.935L339.739 437.416C339.441 436.637 338.64 435.469 337.907 434.622ZM339.487 427.912H340.449V433.317H339.487V427.912ZM340.998 438.057H342.052V446.278H340.998V438.057ZM342.624 427.912H343.609V433.317H342.624V427.912ZM335.777 446.53C338.571 446.164 342.968 445.523 347.182 444.904L347.227 445.912C343.151 446.53 338.846 447.194 335.96 447.63L335.777 446.53ZM346.174 428.576L347.113 429.08C346.357 430.225 345.395 431.507 344.617 432.355L343.884 431.92C344.617 431.026 345.624 429.538 346.174 428.576ZM344.319 434.255L345.372 434.645C344.731 435.881 343.953 437.347 343.311 438.263L342.464 437.942C343.082 436.958 343.907 435.332 344.319 434.255ZM363.491 446.897H376.155V447.836H363.491V446.897ZM360.354 434.347H378.399V438.011H377.277V435.286H361.43V438.011H360.354V434.347ZM363.399 436.981H375.605V441.286H363.399V440.347H374.529V437.92H363.399V436.981ZM363.445 443.187H376.819V448.637H375.72V444.149H363.445V443.187ZM362.735 436.981H363.834V448.706H362.735V436.981ZM368.025 432.79L369.01 432.584C369.422 433.202 369.857 434.072 369.995 434.645L368.964 434.92C368.804 434.347 368.392 433.477 368.025 432.79ZM361.75 429.675H369.079V430.637H361.75V429.675ZM371.186 429.698H379.453V430.66H371.186V429.698ZM362.392 427.729L363.399 428.004C362.506 430.156 361.041 432.24 359.621 433.637C359.438 433.454 359.025 433.088 358.773 432.904C360.239 431.599 361.59 429.698 362.392 427.729ZM371.781 427.752L372.834 427.981C372.17 429.79 371.002 431.507 369.766 432.607C369.583 432.446 369.17 432.08 368.873 431.92C370.155 430.889 371.209 429.378 371.781 427.752ZM363.491 431.278L364.224 430.752C364.98 431.439 365.941 432.423 366.422 433.019L365.644 433.614C365.163 432.996 364.224 431.988 363.491 431.278ZM373.476 431.462L374.231 430.866C375.056 431.553 376.109 432.492 376.636 433.133L375.88 433.797C375.354 433.156 374.323 432.171 373.476 431.462ZM391.09 434.484V438.011H400.525V434.484H391.09ZM391.09 430.019V433.5H400.525V430.019H391.09ZM390.06 429.011H401.602V439.019H390.06V429.011ZM389.693 442.133H401.968V443.164H389.693V442.133ZM387.838 446.897H402.747V447.927H387.838V446.897ZM381.884 429.584H388.754V430.637H381.884V429.584ZM382.136 436.225H388.48V437.278H382.136V436.225ZM381.655 445.042C383.441 444.515 386.075 443.622 388.686 442.729L388.869 443.828C386.441 444.63 383.899 445.523 381.976 446.164L381.655 445.042ZM384.93 429.996H386.006V444.263L384.93 444.538V429.996ZM395.281 429.561H396.289V438.492H396.335V447.332H395.212V438.492H395.281V429.561ZM174.665 467.721H185.131V468.637H174.665V467.721ZM185.337 469.416H192.505V470.4H185.337V469.416ZM175.444 474.339H183.528V475.233H175.444V474.339ZM177.093 470.561V472.416H183.024V470.561H177.093ZM176.108 469.736H184.055V473.217H176.108V469.736ZM183.276 474.339H183.528L183.734 474.294L184.421 474.82C183.299 475.622 181.65 476.332 180.207 476.744C180.07 476.561 179.795 476.263 179.612 476.149C180.94 475.759 182.452 475.141 183.276 474.546V474.339ZM179.612 476.126H180.665V480.202C180.665 480.82 180.528 481.072 180.024 481.233C179.52 481.416 178.604 481.416 177.139 481.416C177.093 481.118 176.91 480.797 176.772 480.523C178.055 480.546 178.948 480.546 179.268 480.523C179.566 480.5 179.612 480.431 179.612 480.202V476.126ZM174.665 477.797C177.184 477.683 181.078 477.454 184.925 477.202L184.902 478.095C181.215 478.347 177.391 478.599 174.757 478.782L174.665 477.797ZM191.91 469.416H192.986C192.963 476.423 192.963 480.523 194.131 480.523C194.497 480.523 194.589 479.103 194.612 477.294C194.841 477.523 195.207 477.775 195.436 477.912C195.322 480.706 195.093 481.507 194.039 481.507C191.841 481.507 191.933 477.362 191.91 469.416ZM185.085 473.492L185.681 472.782C187.696 474.042 190.055 475.942 191.131 477.294L190.513 478.118C189.413 476.744 187.101 474.797 185.085 473.492ZM181.352 482.744L182.383 482.675C182.681 483.889 182.91 485.423 182.933 486.339L181.81 486.5C181.81 485.538 181.627 483.958 181.352 482.744ZM186.162 482.675L187.169 482.492C187.788 483.683 188.383 485.263 188.589 486.225L187.513 486.477C187.307 485.492 186.734 483.889 186.162 482.675ZM190.879 482.492L191.887 482.171C192.917 483.385 194.062 485.057 194.566 486.133L193.513 486.523C193.032 485.446 191.91 483.752 190.879 482.492ZM177.551 482.263L178.536 482.538C177.94 483.958 176.978 485.607 175.902 486.614L174.963 486.202C175.971 485.286 176.955 483.706 177.551 482.263ZM188.108 465.889H189.139V470.652C189.139 474.408 188.543 478.507 183.986 481.645C183.826 481.416 183.482 481.118 183.207 480.935C187.604 477.935 188.108 473.996 188.108 470.675V465.889ZM179.017 466.187L179.933 465.889C180.368 466.484 180.78 467.309 180.963 467.859L179.955 468.271C179.818 467.675 179.406 466.828 179.017 466.187ZM205.49 473.973H206.566V485.24C206.566 485.927 206.406 486.271 205.879 486.454C205.352 486.614 204.368 486.614 202.902 486.614C202.833 486.339 202.673 485.927 202.513 485.63C203.749 485.675 204.757 485.652 205.101 485.63C205.421 485.63 205.49 485.538 205.49 485.24V473.973ZM199.49 473.973H206.017V474.981H199.49V473.973ZM208.902 476.515H209.978V484.576C209.978 485.286 210.23 485.469 211.444 485.469C211.994 485.469 215.108 485.469 215.887 485.469C216.963 485.469 217.123 485.011 217.215 482.332C217.49 482.515 217.948 482.698 218.246 482.767C218.085 485.721 217.719 486.477 215.955 486.477C215.497 486.477 211.833 486.477 211.398 486.477C209.452 486.477 208.902 486.11 208.902 484.576V476.515ZM204.07 467.927L204.963 467.515C206.2 469.072 207.551 471.179 208.146 472.53L207.207 473.011C206.635 471.66 205.307 469.507 204.07 467.927ZM209.452 469.324H216.528V470.355H209.452V469.324ZM209.475 479.515H216.826V480.591H209.475V479.515ZM198.688 472.141C198.62 471.912 198.436 471.317 198.322 471.042C198.665 470.973 199.032 470.652 199.49 470.149C199.948 469.645 201.551 467.744 202.559 465.866L203.681 466.301C202.421 468.271 200.933 470.194 199.536 471.477V471.523C199.536 471.523 198.688 471.866 198.688 472.141ZM198.688 472.141L198.665 471.271L199.398 470.859L206.635 470.4C206.658 470.698 206.749 471.11 206.841 471.339C199.902 471.889 199.146 471.958 198.688 472.141ZM198.963 473.973H199.994V479.904C199.994 482.034 199.765 484.782 198.207 486.706C198.07 486.477 197.681 486.065 197.452 485.904C198.803 484.187 198.963 481.828 198.963 479.904V473.973ZM199.948 482.698C201.459 482.034 203.681 480.935 205.833 479.859L206.085 480.683C204.116 481.736 202.101 482.836 200.475 483.66L199.948 482.698ZM200.452 477.339L201.047 476.698C202.467 477.431 204.276 478.484 205.215 479.149L204.62 479.881C203.681 479.171 201.894 478.072 200.452 477.339ZM208.902 465.866H209.978V473.584C209.978 474.408 210.207 474.683 210.986 474.683C211.673 474.683 215.017 474.683 215.726 474.683C216.23 474.683 217.101 474.66 217.49 474.591C217.536 474.889 217.581 475.324 217.65 475.576C217.307 475.645 216.551 475.668 215.772 475.668C215.039 475.668 211.398 475.668 210.986 475.668C209.383 475.668 208.902 475.141 208.902 473.561V465.866ZM223.925 470.515H239.726V471.591H223.925V470.515ZM222.872 477.225H238.948V478.278H222.872V477.225ZM220.467 484.851H240.78V485.927H220.467V484.851ZM230.062 465.912H231.184V485.4H230.062V465.912ZM225.001 466.324L226.123 466.553C225.116 470.103 223.536 473.423 221.681 475.622C221.475 475.439 220.948 475.095 220.696 474.958C222.597 472.851 224.108 469.668 225.001 466.324ZM243.093 468.958H251.337V470.034H243.093V468.958ZM251.406 467.332H263.887V468.431H251.406V467.332ZM246.803 469.278H247.902V481.21H246.803V469.278ZM242.933 481.622C245.085 481.164 248.383 480.408 251.589 479.63L251.704 480.706C248.635 481.439 245.429 482.171 243.162 482.744L242.933 481.622ZM255.23 467.836H256.375C255.78 470.584 254.933 474.271 254.337 476.4H253.146C253.833 474.225 254.704 470.492 255.23 467.836ZM262.192 475.301H263.314C263.314 475.301 263.291 475.736 263.268 475.92C262.765 482.423 262.307 484.897 261.368 485.767C260.91 486.248 260.452 486.362 259.604 486.408C258.826 486.431 257.2 486.385 255.505 486.271C255.459 485.95 255.299 485.469 255.07 485.149C256.902 485.332 258.665 485.355 259.307 485.355C259.856 485.355 260.2 485.309 260.429 485.08C261.23 484.393 261.688 481.874 262.192 475.53V475.301ZM253.971 475.301H262.604V476.4H253.673L253.971 475.301Z" fill="black"/>
<path d="M486.314 437.488C486.314 437.27 486.403 437.061 486.561 436.907C486.719 436.752 486.934 436.666 487.157 436.666L505.041 436.666L498.083 429.991C498.004 429.915 497.941 429.825 497.898 429.726C497.854 429.626 497.832 429.519 497.831 429.411C497.83 429.303 497.851 429.196 497.892 429.096C497.934 428.996 497.995 428.905 498.072 428.828C498.15 428.751 498.243 428.689 498.344 428.647C498.446 428.605 498.556 428.583 498.666 428.582C498.89 428.58 499.105 428.665 499.265 428.818L507.69 436.9C507.693 436.904 507.697 436.908 507.701 436.911C507.78 436.989 507.842 437.082 507.883 437.184C507.925 437.286 507.945 437.394 507.943 437.504C507.941 437.613 507.916 437.721 507.87 437.822C507.825 437.922 507.759 438.012 507.677 438.087L499.265 446.158C499.186 446.233 499.092 446.293 498.99 446.334C498.887 446.374 498.777 446.395 498.667 446.394C498.556 446.393 498.447 446.371 498.345 446.329C498.243 446.286 498.15 446.225 498.073 446.148C497.995 446.071 497.934 445.98 497.892 445.88C497.851 445.78 497.83 445.673 497.831 445.565C497.832 445.457 497.854 445.35 497.898 445.251C497.941 445.151 498.004 445.061 498.083 444.985L505.041 438.31L487.157 438.31C486.934 438.31 486.719 438.223 486.561 438.069C486.403 437.915 486.314 437.706 486.314 437.488Z" fill="#FF6A3C"/>
<circle opacity="0.6" cx="684.151" cy="437.488" r="93.5115" fill="#FF6A3C"/>
<path d="M669.372 429.697H683.57V432.318H669.372V429.697ZM675.071 441.504H677.972V451.122H675.071V441.504ZM674.435 441.173L676.623 442.42C675.402 445.244 673.01 448.323 670.669 450.002C670.288 449.29 669.55 448.221 668.914 447.636C671.153 446.364 673.392 443.717 674.435 441.173ZM678.506 441.275C679.779 443.59 682.145 446.211 684.13 447.636C683.494 448.145 682.603 449.086 682.12 449.773C680.211 447.992 677.998 444.786 676.725 441.962L678.506 441.275ZM672.221 436.109V440.282H680.593V436.109H672.221ZM669.88 433.717H683.137V442.649H669.88V433.717ZM672.578 436.873L674.053 436.466C674.537 437.432 674.97 438.705 675.097 439.57L673.519 440.028C673.443 439.163 673.036 437.84 672.578 436.873ZM678.939 436.364L680.669 436.847C680.211 437.992 679.753 439.214 679.346 440.053L677.921 439.595C678.303 438.705 678.735 437.305 678.939 436.364ZM674.995 427.254H677.896V434.684H677.641V441.962H675.199V434.684H674.995V427.254ZM666.267 437.789L668.405 437.203C668.99 438.934 669.575 441.198 669.728 442.547L667.489 443.259C667.31 441.86 666.802 439.544 666.267 437.789ZM663.952 444.379L666.013 444.023C666.318 445.906 666.573 448.298 666.649 449.926L664.486 450.333C664.461 448.705 664.206 446.262 663.952 444.379ZM661.127 444.048L663.443 444.43C663.265 446.796 662.832 449.341 662.298 450.969C661.789 450.689 660.669 450.359 660.059 450.181C660.669 448.628 660.975 446.237 661.127 444.048ZM660.898 437.356C660.746 436.822 660.313 435.499 659.982 434.812C660.466 434.659 660.898 434.175 661.382 433.412C661.891 432.7 663.443 429.85 664.308 427.153L666.954 428.221C665.809 430.969 664.104 433.921 662.501 435.931V435.982C662.501 435.982 660.898 436.847 660.898 437.356ZM660.898 437.356L660.796 435.295L662.018 434.506L666.471 434.201C666.318 434.913 666.216 435.957 666.191 436.542C662.221 436.949 661.407 437.127 660.898 437.356ZM661.076 443.259C660.949 442.725 660.491 441.377 660.16 440.639C660.796 440.486 661.331 439.901 662.12 438.934C662.959 438.018 665.504 434.328 667.005 430.817L669.473 432.318C667.692 435.728 665.173 439.29 662.756 441.809V441.911C662.756 441.911 661.076 442.751 661.076 443.259ZM661.076 443.259L660.949 441.147L662.196 440.308L668.761 439.519C668.634 440.257 668.557 441.3 668.583 441.885C662.679 442.7 661.713 442.954 661.076 443.259ZM666.496 443.896L668.43 443.336C668.914 444.939 669.422 447 669.601 448.349L667.59 448.959C667.438 447.585 666.954 445.499 666.496 443.896ZM689.168 440.435H706.293V451.198H703.112V442.751H692.196V451.198H689.168V440.435ZM690.695 444.201H703.926V446.491H690.695V444.201ZM690.847 447.992H704.053V450.282H690.847V447.992ZM695.936 438.12L699.219 438.578C698.557 439.875 697.819 441.147 697.234 441.962L694.741 441.427C695.199 440.435 695.707 439.086 695.936 438.12ZM686.394 428.399H694.613V430.74H686.394V428.399ZM693.926 428.399H696.674V436.822C696.674 438.018 696.42 438.603 695.631 438.959C694.817 439.315 693.697 439.315 692.145 439.315C692.043 438.654 691.687 437.763 691.382 437.153C692.272 437.178 693.239 437.178 693.519 437.178C693.824 437.178 693.926 437.076 693.926 436.822V428.399ZM698.023 428.399H706.802V430.74H698.023V428.399ZM705.377 428.399H708.227V436.745C708.227 437.992 707.972 438.603 707.107 439.01C706.242 439.366 705.02 439.392 703.341 439.366C703.214 438.679 702.883 437.712 702.552 437.076C703.494 437.127 704.639 437.127 704.944 437.102C705.275 437.076 705.377 437.025 705.377 436.72V428.399ZM697.285 435.88C699.092 435.346 701.738 434.481 704.308 433.565L704.766 435.753C702.578 436.593 700.211 437.483 698.303 438.145L697.285 435.88ZM698.481 432.242L699.931 430.46C701.076 430.995 702.603 431.885 703.341 432.572L701.814 434.557C701.127 433.845 699.626 432.878 698.481 432.242ZM685.707 436.313C687.412 435.829 689.906 434.964 692.374 434.099L692.807 436.287C690.746 437.178 688.583 438.094 686.802 438.807L685.707 436.313ZM687.056 432.267L688.532 430.511C689.651 431.071 691.127 431.962 691.814 432.649L690.288 434.583C689.626 433.896 688.201 432.903 687.056 432.267Z" fill="white"/>
</svg>
